<?xml version="1.0" encoding="UTF-8"?>
<svg width="660px" height="770px" viewBox="0 0 660 770" version="1.1" xmlns="http://www.w3.org/2000/svg" xmlns:xlink="http://www.w3.org/1999/xlink">
    <title>Group 2</title>
    <defs>
        <rect id="path-1" x="0" y="0" width="660" height="770"></rect>
        <path d="M414.643377,210.184309 C624.245674,207.076809 791.641811,374.539418 788.533113,584.222515 C788.471526,588.376634 788.343478,592.516159 788.149999,596.640062 L29.511055,607.887412 C29.4397967,603.767434 29.4344626,599.629887 29.4960503,595.475768 C32.6047481,385.792671 205.04108,213.291809 414.643377,210.184309 Z" id="path-3"></path>
        <linearGradient x1="20.1839338%" y1="44.4177694%" x2="75.9276107%" y2="70.8439655%" id="linearGradient-5">
            <stop stop-color="#FFFFFF" offset="0%"></stop>
            <stop stop-color="#FFFFFF" stop-opacity="0" offset="100%"></stop>
        </linearGradient>
        <path d="M99.5193789,4.57949059 L163.935123,42.8451147 C168.513886,45.5650897 171.320421,50.4966697 171.320421,55.8223934 L171.320421,133.106758 C171.320421,138.432482 168.513886,143.364062 163.935123,146.084037 L99.5193789,184.349661 C94.7676099,187.172409 88.8530642,187.172409 84.1012952,184.349661 L19.6855506,146.084037 C15.1067878,143.364062 12.3002528,138.432482 12.3002528,133.106758 L12.3002528,55.8223934 C12.3002528,50.4966697 15.1067878,45.5650897 19.6855506,42.8451147 L84.1012952,4.57949059 C88.8530642,1.75674272 94.7676099,1.75674272 99.5193789,4.57949059 Z" id="path-6"></path>
    </defs>
    <g id="Page-1" stroke="none" stroke-width="1" fill="none" fill-rule="evenodd">
        <g id="RO" transform="translate(-295, -632)">
            <g id="Group-3" transform="translate(426.5489, 781) scale(-1, 1) translate(-426.5489, -781)translate(-101.9022, 160)">
                <g id="Group-2" transform="translate(0, 472)">
                    <mask id="mask-2" fill="white">
                        <use xlink:href="#path-1"></use>
                    </mask>
                    <g id="Mask"></g>
                    <g mask="url(#mask-2)">
                        <g transform="translate(-158.4386, -149.1308)">
                            <g id="Group">
                                <mask id="mask-4" fill="white">
                                    <use xlink:href="#path-3" transform="translate(409.0146, 409.0146) rotate(-45) translate(-409.0146, -409.0146)"></use>
                                </mask>
                                <use id="Path" fill="#1565D8" transform="translate(409.0146, 409.0146) rotate(-45) translate(-409.0146, -409.0146)" xlink:href="#path-3"></use>
                                <path d="M635.610514,391.040196 C637.562444,391.040196 639.144795,389.411774 639.144795,387.403014 C639.144795,385.394254 637.562444,383.765832 635.610514,383.765832 C633.658585,383.765832 632.076233,385.394254 632.076233,387.403014 C632.076233,389.411774 633.658585,391.040196 635.610514,391.040196 Z M617.05554,391.040196 C619.007469,391.040196 620.58982,389.411774 620.58982,387.403014 C620.58982,385.394254 619.007469,383.765832 617.05554,383.765832 C615.10361,383.765832 613.521259,385.394254 613.521259,387.403014 C613.521259,389.411774 615.10361,391.040196 617.05554,391.040196 Z M598.500565,391.040196 C600.452495,391.040196 602.034846,389.411774 602.034846,387.403014 C602.034846,385.394254 600.452495,383.765832 598.500565,383.765832 C596.548636,383.765832 594.966284,385.394254 594.966284,387.403014 C594.966284,389.411774 596.548636,391.040196 598.500565,391.040196 Z M579.945591,391.040196 C581.89752,391.040196 583.479872,389.411774 583.479872,387.403014 C583.479872,385.394254 581.89752,383.765832 579.945591,383.765832 C577.993661,383.765832 576.41131,385.394254 576.41131,387.403014 C576.41131,389.411774 577.993661,391.040196 579.945591,391.040196 Z M561.390616,391.040196 C563.342546,391.040196 564.924897,389.411774 564.924897,387.403014 C564.924897,385.394254 563.342546,383.765832 561.390616,383.765832 C559.438687,383.765832 557.856335,385.394254 557.856335,387.403014 C557.856335,389.411774 559.438687,391.040196 561.390616,391.040196 Z M542.835642,391.040196 C544.787571,391.040196 546.369923,389.411774 546.369923,387.403014 C546.369923,385.394254 544.787571,383.765832 542.835642,383.765832 C540.883712,383.765832 539.301361,385.394254 539.301361,387.403014 C539.301361,389.411774 540.883712,391.040196 542.835642,391.040196 Z M524.280667,391.040196 C526.232597,391.040196 527.814948,389.411774 527.814948,387.403014 C527.814948,385.394254 526.232597,383.765832 524.280667,383.765832 C522.328738,383.765832 520.746386,385.394254 520.746386,387.403014 C520.746386,389.411774 522.328738,391.040196 524.280667,391.040196 Z M635.610514,371.944991 C637.562444,371.944991 639.144795,370.316569 639.144795,368.307809 C639.144795,366.299049 637.562444,364.670627 635.610514,364.670627 C633.658585,364.670627 632.076233,366.299049 632.076233,368.307809 C632.076233,370.316569 633.658585,371.944991 635.610514,371.944991 Z M617.05554,371.944991 C619.007469,371.944991 620.58982,370.316569 620.58982,368.307809 C620.58982,366.299049 619.007469,364.670627 617.05554,364.670627 C615.10361,364.670627 613.521259,366.299049 613.521259,368.307809 C613.521259,370.316569 615.10361,371.944991 617.05554,371.944991 Z M598.500565,371.944991 C600.452495,371.944991 602.034846,370.316569 602.034846,368.307809 C602.034846,366.299049 600.452495,364.670627 598.500565,364.670627 C596.548636,364.670627 594.966284,366.299049 594.966284,368.307809 C594.966284,370.316569 596.548636,371.944991 598.500565,371.944991 Z M579.945591,371.944991 C581.89752,371.944991 583.479872,370.316569 583.479872,368.307809 C583.479872,366.299049 581.89752,364.670627 579.945591,364.670627 C577.993661,364.670627 576.41131,366.299049 576.41131,368.307809 C576.41131,370.316569 577.993661,371.944991 579.945591,371.944991 Z M561.390616,371.944991 C563.342546,371.944991 564.924897,370.316569 564.924897,368.307809 C564.924897,366.299049 563.342546,364.670627 561.390616,364.670627 C559.438687,364.670627 557.856335,366.299049 557.856335,368.307809 C557.856335,370.316569 559.438687,371.944991 561.390616,371.944991 Z M542.835642,371.944991 C544.787571,371.944991 546.369923,370.316569 546.369923,368.307809 C546.369923,366.299049 544.787571,364.670627 542.835642,364.670627 C540.883712,364.670627 539.301361,366.299049 539.301361,368.307809 C539.301361,370.316569 540.883712,371.944991 542.835642,371.944991 Z M524.280667,371.944991 C526.232597,371.944991 527.814948,370.316569 527.814948,368.307809 C527.814948,366.299049 526.232597,364.670627 524.280667,364.670627 C522.328738,364.670627 520.746386,366.299049 520.746386,368.307809 C520.746386,370.316569 522.328738,371.944991 524.280667,371.944991 Z M635.610514,352.849786 C637.562444,352.849786 639.144795,351.221364 639.144795,349.212604 C639.144795,347.203843 637.562444,345.575422 635.610514,345.575422 C633.658585,345.575422 632.076233,347.203843 632.076233,349.212604 C632.076233,351.221364 633.658585,352.849786 635.610514,352.849786 Z M617.05554,352.849786 C619.007469,352.849786 620.58982,351.221364 620.58982,349.212604 C620.58982,347.203843 619.007469,345.575422 617.05554,345.575422 C615.10361,345.575422 613.521259,347.203843 613.521259,349.212604 C613.521259,351.221364 615.10361,352.849786 617.05554,352.849786 Z M598.500565,352.849786 C600.452495,352.849786 602.034846,351.221364 602.034846,349.212604 C602.034846,347.203843 600.452495,345.575422 598.500565,345.575422 C596.548636,345.575422 594.966284,347.203843 594.966284,349.212604 C594.966284,351.221364 596.548636,352.849786 598.500565,352.849786 Z M579.945591,352.849786 C581.89752,352.849786 583.479872,351.221364 583.479872,349.212604 C583.479872,347.203843 581.89752,345.575422 579.945591,345.575422 C577.993661,345.575422 576.41131,347.203843 576.41131,349.212604 C576.41131,351.221364 577.993661,352.849786 579.945591,352.849786 Z M561.390616,352.849786 C563.342546,352.849786 564.924897,351.221364 564.924897,349.212604 C564.924897,347.203843 563.342546,345.575422 561.390616,345.575422 C559.438687,345.575422 557.856335,347.203843 557.856335,349.212604 C557.856335,351.221364 559.438687,352.849786 561.390616,352.849786 Z M542.835642,352.849786 C544.787571,352.849786 546.369923,351.221364 546.369923,349.212604 C546.369923,347.203843 544.787571,345.575422 542.835642,345.575422 C540.883712,345.575422 539.301361,347.203843 539.301361,349.212604 C539.301361,351.221364 540.883712,352.849786 542.835642,352.849786 Z M524.280667,352.849786 C526.232597,352.849786 527.814948,351.221364 527.814948,349.212604 C527.814948,347.203843 526.232597,345.575422 524.280667,345.575422 C522.328738,345.575422 520.746386,347.203843 520.746386,349.212604 C520.746386,351.221364 522.328738,352.849786 524.280667,352.849786 Z M635.610514,333.75458 C637.562444,333.75458 639.144795,332.126158 639.144795,330.117398 C639.144795,328.108638 637.562444,326.480216 635.610514,326.480216 C633.658585,326.480216 632.076233,328.108638 632.076233,330.117398 C632.076233,332.126158 633.658585,333.75458 635.610514,333.75458 Z M617.05554,333.75458 C619.007469,333.75458 620.58982,332.126158 620.58982,330.117398 C620.58982,328.108638 619.007469,326.480216 617.05554,326.480216 C615.10361,326.480216 613.521259,328.108638 613.521259,330.117398 C613.521259,332.126158 615.10361,333.75458 617.05554,333.75458 Z M598.500565,333.75458 C600.452495,333.75458 602.034846,332.126158 602.034846,330.117398 C602.034846,328.108638 600.452495,326.480216 598.500565,326.480216 C596.548636,326.480216 594.966284,328.108638 594.966284,330.117398 C594.966284,332.126158 596.548636,333.75458 598.500565,333.75458 Z M579.945591,333.75458 C581.89752,333.75458 583.479872,332.126158 583.479872,330.117398 C583.479872,328.108638 581.89752,326.480216 579.945591,326.480216 C577.993661,326.480216 576.41131,328.108638 576.41131,330.117398 C576.41131,332.126158 577.993661,333.75458 579.945591,333.75458 Z M561.390616,333.75458 C563.342546,333.75458 564.924897,332.126158 564.924897,330.117398 C564.924897,328.108638 563.342546,326.480216 561.390616,326.480216 C559.438687,326.480216 557.856335,328.108638 557.856335,330.117398 C557.856335,332.126158 559.438687,333.75458 561.390616,333.75458 Z M542.835642,333.75458 C544.787571,333.75458 546.369923,332.126158 546.369923,330.117398 C546.369923,328.108638 544.787571,326.480216 542.835642,326.480216 C540.883712,326.480216 539.301361,328.108638 539.301361,330.117398 C539.301361,332.126158 540.883712,333.75458 542.835642,333.75458 Z M524.280667,333.75458 C526.232597,333.75458 527.814948,332.126158 527.814948,330.117398 C527.814948,328.108638 526.232597,326.480216 524.280667,326.480216 C522.328738,326.480216 520.746386,328.108638 520.746386,330.117398 C520.746386,332.126158 522.328738,333.75458 524.280667,333.75458 Z M635.610514,314.659375 C637.562444,314.659375 639.144795,313.030953 639.144795,311.022193 C639.144795,309.013433 637.562444,307.385011 635.610514,307.385011 C633.658585,307.385011 632.076233,309.013433 632.076233,311.022193 C632.076233,313.030953 633.658585,314.659375 635.610514,314.659375 Z M617.05554,314.659375 C619.007469,314.659375 620.58982,313.030953 620.58982,311.022193 C620.58982,309.013433 619.007469,307.385011 617.05554,307.385011 C615.10361,307.385011 613.521259,309.013433 613.521259,311.022193 C613.521259,313.030953 615.10361,314.659375 617.05554,314.659375 Z M598.500565,314.659375 C600.452495,314.659375 602.034846,313.030953 602.034846,311.022193 C602.034846,309.013433 600.452495,307.385011 598.500565,307.385011 C596.548636,307.385011 594.966284,309.013433 594.966284,311.022193 C594.966284,313.030953 596.548636,314.659375 598.500565,314.659375 Z M579.945591,314.659375 C581.89752,314.659375 583.479872,313.030953 583.479872,311.022193 C583.479872,309.013433 581.89752,307.385011 579.945591,307.385011 C577.993661,307.385011 576.41131,309.013433 576.41131,311.022193 C576.41131,313.030953 577.993661,314.659375 579.945591,314.659375 Z M561.390616,314.659375 C563.342546,314.659375 564.924897,313.030953 564.924897,311.022193 C564.924897,309.013433 563.342546,307.385011 561.390616,307.385011 C559.438687,307.385011 557.856335,309.013433 557.856335,311.022193 C557.856335,313.030953 559.438687,314.659375 561.390616,314.659375 Z M542.835642,314.659375 C544.787571,314.659375 546.369923,313.030953 546.369923,311.022193 C546.369923,309.013433 544.787571,307.385011 542.835642,307.385011 C540.883712,307.385011 539.301361,309.013433 539.301361,311.022193 C539.301361,313.030953 540.883712,314.659375 542.835642,314.659375 Z M524.280667,314.659375 C526.232597,314.659375 527.814948,313.030953 527.814948,311.022193 C527.814948,309.013433 526.232597,307.385011 524.280667,307.385011 C522.328738,307.385011 520.746386,309.013433 520.746386,311.022193 C520.746386,313.030953 522.328738,314.659375 524.280667,314.659375 Z M635.610514,295.56417 C637.562444,295.56417 639.144795,293.935748 639.144795,291.926988 C639.144795,289.918228 637.562444,288.289806 635.610514,288.289806 C633.658585,288.289806 632.076233,289.918228 632.076233,291.926988 C632.076233,293.935748 633.658585,295.56417 635.610514,295.56417 Z M617.05554,295.56417 C619.007469,295.56417 620.58982,293.935748 620.58982,291.926988 C620.58982,289.918228 619.007469,288.289806 617.05554,288.289806 C615.10361,288.289806 613.521259,289.918228 613.521259,291.926988 C613.521259,293.935748 615.10361,295.56417 617.05554,295.56417 Z M598.500565,295.56417 C600.452495,295.56417 602.034846,293.935748 602.034846,291.926988 C602.034846,289.918228 600.452495,288.289806 598.500565,288.289806 C596.548636,288.289806 594.966284,289.918228 594.966284,291.926988 C594.966284,293.935748 596.548636,295.56417 598.500565,295.56417 Z M579.945591,295.56417 C581.89752,295.56417 583.479872,293.935748 583.479872,291.926988 C583.479872,289.918228 581.89752,288.289806 579.945591,288.289806 C577.993661,288.289806 576.41131,289.918228 576.41131,291.926988 C576.41131,293.935748 577.993661,295.56417 579.945591,295.56417 Z M561.390616,295.56417 C563.342546,295.56417 564.924897,293.935748 564.924897,291.926988 C564.924897,289.918228 563.342546,288.289806 561.390616,288.289806 C559.438687,288.289806 557.856335,289.918228 557.856335,291.926988 C557.856335,293.935748 559.438687,295.56417 561.390616,295.56417 Z M542.835642,295.56417 C544.787571,295.56417 546.369923,293.935748 546.369923,291.926988 C546.369923,289.918228 544.787571,288.289806 542.835642,288.289806 C540.883712,288.289806 539.301361,289.918228 539.301361,291.926988 C539.301361,293.935748 540.883712,295.56417 542.835642,295.56417 Z M524.280667,295.56417 C526.232597,295.56417 527.814948,293.935748 527.814948,291.926988 C527.814948,289.918228 526.232597,288.289806 524.280667,288.289806 C522.328738,288.289806 520.746386,289.918228 520.746386,291.926988 C520.746386,293.935748 522.328738,295.56417 524.280667,295.56417 Z M635.610514,276.468965 C637.562444,276.468965 639.144795,274.840543 639.144795,272.831783 C639.144795,270.823023 637.562444,269.194601 635.610514,269.194601 C633.658585,269.194601 632.076233,270.823023 632.076233,272.831783 C632.076233,274.840543 633.658585,276.468965 635.610514,276.468965 Z M617.05554,276.468965 C619.007469,276.468965 620.58982,274.840543 620.58982,272.831783 C620.58982,270.823023 619.007469,269.194601 617.05554,269.194601 C615.10361,269.194601 613.521259,270.823023 613.521259,272.831783 C613.521259,274.840543 615.10361,276.468965 617.05554,276.468965 Z M598.500565,276.468965 C600.452495,276.468965 602.034846,274.840543 602.034846,272.831783 C602.034846,270.823023 600.452495,269.194601 598.500565,269.194601 C596.548636,269.194601 594.966284,270.823023 594.966284,272.831783 C594.966284,274.840543 596.548636,276.468965 598.500565,276.468965 Z M579.945591,276.468965 C581.89752,276.468965 583.479872,274.840543 583.479872,272.831783 C583.479872,270.823023 581.89752,269.194601 579.945591,269.194601 C577.993661,269.194601 576.41131,270.823023 576.41131,272.831783 C576.41131,274.840543 577.993661,276.468965 579.945591,276.468965 Z M561.390616,276.468965 C563.342546,276.468965 564.924897,274.840543 564.924897,272.831783 C564.924897,270.823023 563.342546,269.194601 561.390616,269.194601 C559.438687,269.194601 557.856335,270.823023 557.856335,272.831783 C557.856335,274.840543 559.438687,276.468965 561.390616,276.468965 Z M542.835642,276.468965 C544.787571,276.468965 546.369923,274.840543 546.369923,272.831783 C546.369923,270.823023 544.787571,269.194601 542.835642,269.194601 C540.883712,269.194601 539.301361,270.823023 539.301361,272.831783 C539.301361,274.840543 540.883712,276.468965 542.835642,276.468965 Z M524.280667,276.468965 C526.232597,276.468965 527.814948,274.840543 527.814948,272.831783 C527.814948,270.823023 526.232597,269.194601 524.280667,269.194601 C522.328738,269.194601 520.746386,270.823023 520.746386,272.831783 C520.746386,274.840543 522.328738,276.468965 524.280667,276.468965 Z M635.610514,257.373759 C637.562444,257.373759 639.144795,255.745338 639.144795,253.736577 C639.144795,251.727817 637.562444,250.099395 635.610514,250.099395 C633.658585,250.099395 632.076233,251.727817 632.076233,253.736577 C632.076233,255.745338 633.658585,257.373759 635.610514,257.373759 Z M617.05554,257.373759 C619.007469,257.373759 620.58982,255.745338 620.58982,253.736577 C620.58982,251.727817 619.007469,250.099395 617.05554,250.099395 C615.10361,250.099395 613.521259,251.727817 613.521259,253.736577 C613.521259,255.745338 615.10361,257.373759 617.05554,257.373759 Z M598.500565,257.373759 C600.452495,257.373759 602.034846,255.745338 602.034846,253.736577 C602.034846,251.727817 600.452495,250.099395 598.500565,250.099395 C596.548636,250.099395 594.966284,251.727817 594.966284,253.736577 C594.966284,255.745338 596.548636,257.373759 598.500565,257.373759 Z M579.945591,257.373759 C581.89752,257.373759 583.479872,255.745338 583.479872,253.736577 C583.479872,251.727817 581.89752,250.099395 579.945591,250.099395 C577.993661,250.099395 576.41131,251.727817 576.41131,253.736577 C576.41131,255.745338 577.993661,257.373759 579.945591,257.373759 Z M561.390616,257.373759 C563.342546,257.373759 564.924897,255.745338 564.924897,253.736577 C564.924897,251.727817 563.342546,250.099395 561.390616,250.099395 C559.438687,250.099395 557.856335,251.727817 557.856335,253.736577 C557.856335,255.745338 559.438687,257.373759 561.390616,257.373759 Z M542.835642,257.373759 C544.787571,257.373759 546.369923,255.745338 546.369923,253.736577 C546.369923,251.727817 544.787571,250.099395 542.835642,250.099395 C540.883712,250.099395 539.301361,251.727817 539.301361,253.736577 C539.301361,255.745338 540.883712,257.373759 542.835642,257.373759 Z M524.280667,257.373759 C526.232597,257.373759 527.814948,255.745338 527.814948,253.736577 C527.814948,251.727817 526.232597,250.099395 524.280667,250.099395 C522.328738,250.099395 520.746386,251.727817 520.746386,253.736577 C520.746386,255.745338 522.328738,257.373759 524.280667,257.373759 Z" id="Pattern" fill="#FFFFFF" opacity="0.100000001" mask="url(#mask-4)"></path>
                                <path d="M661.951046,595.954126 C856.24402,595.954126 1013.7496,433.725489 1013.7496,233.606323 C1013.7496,33.4871576 856.24402,-128.74148 661.951046,-128.74148 C467.658072,-128.74148 310.152496,33.4871576 310.152496,233.606323 C310.152496,433.725489 467.658072,595.954126 661.951046,595.954126 Z M661.951046,473.957629 C533.073294,473.957629 428.597234,366.348684 428.597234,233.606323 C428.597234,100.863962 533.073294,-6.74498319 661.951046,-6.74498319 C790.828798,-6.74498319 895.304858,100.863962 895.304858,233.606323 C895.304858,366.348684 790.828798,473.957629 661.951046,473.957629 Z" id="Oval" fill="url(#linearGradient-5)" opacity="0.101283482" mask="url(#mask-4)"></path>
                            </g>
                            <g id="Shape-2" transform="translate(466.9603, 720.1308)">
                                <path d="M130.244733,14.5794906 L194.690294,52.8628268 C199.269057,55.5828018 202.075592,60.5143818 202.075592,65.8401055 L202.075592,143.159895 C202.075592,148.485618 199.269057,153.417198 194.690294,156.137173 L130.244733,194.420509 C125.492964,197.243257 119.578418,197.243257 114.826649,194.420509 L50.3810884,156.137173 C45.8023256,153.417198 42.9957906,148.485618 42.9957906,143.159895 L42.9957906,65.8401055 C42.9957906,60.5143818 45.8023256,55.5828018 50.3810884,52.8628268 L114.826649,14.5794906 C119.578418,11.7567427 125.492964,11.7567427 130.244733,14.5794906 Z" id="Polygon" fill="#1565D8" opacity="0.093656994"></path>
                                <g id="Shape" opacity="0.200000003">
                                    <mask id="mask-7" fill="white">
                                        <use xlink:href="#path-6"></use>
                                    </mask>
                                    <g id="Mask" opacity="0.100000001"></g>
                                    <path d="M298.267245,-62.9660549 L299.799621,-62.2514961 L121.00725,321.16998 L119.474874,320.455421 L298.267245,-62.9660549 Z M289.813294,-62.9660549 L291.34567,-62.2514961 L112.5533,321.16998 L111.020923,320.455421 L289.813294,-62.9660549 Z M281.359343,-62.9660549 L282.89172,-62.2514961 L104.099349,321.16998 L102.566973,320.455421 L281.359343,-62.9660549 Z M272.905393,-62.9660549 L274.437769,-62.2514961 L95.6453986,321.16998 L94.1130223,320.455421 L272.905393,-62.9660549 Z M264.451442,-62.9660549 L265.983819,-62.2514961 L87.191448,321.16998 L85.6590718,320.455421 L264.451442,-62.9660549 Z M255.997492,-62.9660549 L257.529868,-62.2514961 L78.7374975,321.16998 L77.2051212,320.455421 L255.997492,-62.9660549 Z M247.543541,-62.9660549 L249.075917,-62.2514961 L70.2835469,321.16998 L68.7511707,320.455421 L247.543541,-62.9660549 Z M239.089591,-62.9660549 L240.621967,-62.2514961 L61.8295964,321.16998 L60.2972201,320.455421 L239.089591,-62.9660549 Z M230.63564,-62.9660549 L232.168016,-62.2514961 L53.3756458,321.16998 L51.8432695,320.455421 L230.63564,-62.9660549 Z M222.18169,-62.9660549 L223.714066,-62.2514961 L44.9216952,321.16998 L43.389319,320.455421 L222.18169,-62.9660549 Z M213.727739,-62.9660549 L215.260115,-62.2514961 L36.4677447,321.16998 L34.9353684,320.455421 L213.727739,-62.9660549 Z M205.273788,-62.9660549 L206.806165,-62.2514961 L28.0137941,321.16998 L26.4814179,320.455421 L205.273788,-62.9660549 Z M196.819838,-62.9660549 L198.352214,-62.2514961 L19.5598436,321.16998 L18.0274673,320.455421 L196.819838,-62.9660549 Z M188.365887,-62.9660549 L189.898264,-62.2514961 L11.105893,321.16998 L9.57351676,320.455421 L188.365887,-62.9660549 Z M179.911937,-62.9660549 L181.444313,-62.2514961 L2.65194244,321.16998 L1.1195662,320.455421 L179.911937,-62.9660549 Z M171.457986,-62.9660549 L172.990362,-62.2514961 L-5.80200811,321.16998 L-7.33438436,320.455421 L171.457986,-62.9660549 Z M163.004036,-62.9660549 L164.536412,-62.2514961 L-14.2559587,321.16998 L-15.7883349,320.455421 L163.004036,-62.9660549 Z M154.550085,-62.9660549 L156.082461,-62.2514961 L-22.7099092,321.16998 L-24.2422855,320.455421 L154.550085,-62.9660549 Z M146.096134,-62.9660549 L147.628511,-62.2514961 L-31.1638598,321.16998 L-32.696236,320.455421 L146.096134,-62.9660549 Z M137.642184,-62.9660549 L139.17456,-62.2514961 L-39.6178103,321.16998 L-41.1501866,320.455421 L137.642184,-62.9660549 Z M129.188233,-62.9660549 L130.72061,-62.2514961 L-48.0717609,321.16998 L-49.6041371,320.455421 L129.188233,-62.9660549 Z M120.734283,-62.9660549 L122.266659,-62.2514961 L-56.5257115,321.16998 L-58.0580877,320.455421 L120.734283,-62.9660549 Z M112.280332,-62.9660549 L113.812709,-62.2514961 L-64.979662,321.16998 L-66.5120383,320.455421 L112.280332,-62.9660549 Z M103.826382,-62.9660549 L105.358758,-62.2514961 L-73.4336126,321.16998 L-74.9659888,320.455421 L103.826382,-62.9660549 Z M95.3724311,-62.9660549 L96.9048074,-62.2514961 L-81.8875631,321.16998 L-83.4199394,320.455421 L95.3724311,-62.9660549 Z M86.9184806,-62.9660549 L88.4508568,-62.2514961 L-90.3415137,321.16998 L-91.8738899,320.455421 L86.9184806,-62.9660549 Z" fill="#1565D8" fill-rule="nonzero" mask="url(#mask-7)" transform="translate(103.9629, 129.102) scale(-1, 1) translate(-103.9629, -129.102)"></path>
                                </g>
                            </g>
                        </g>
                    </g>
                </g>
            </g>
        </g>
    </g>
</svg>