<?xml version="1.0" encoding="UTF-8"?>
<svg width="109px" height="28px" viewBox="0 0 109 28" version="1.1" xmlns="http://www.w3.org/2000/svg" xmlns:xlink="http://www.w3.org/1999/xlink">
    <title>Logo/Colored</title>
    <defs>
        <linearGradient x1="50%" y1="0%" x2="50%" y2="100%" id="linearGradient-1">
            <stop stop-color="#244A71" offset="0%"></stop>
            <stop stop-color="#10243E" offset="100%"></stop>
        </linearGradient>
        <linearGradient x1="50%" y1="0%" x2="50%" y2="100%" id="linearGradient-2">
            <stop stop-color="#244A71" offset="0%"></stop>
            <stop stop-color="#10243E" offset="100%"></stop>
        </linearGradient>
        <linearGradient x1="50%" y1="0%" x2="50%" y2="100%" id="linearGradient-3">
            <stop stop-color="#244A71" offset="0%"></stop>
            <stop stop-color="#10243E" offset="100%"></stop>
        </linearGradient>
        <linearGradient x1="50%" y1="0%" x2="50%" y2="100%" id="linearGradient-4">
            <stop stop-color="#244A71" offset="0%"></stop>
            <stop stop-color="#10243E" offset="100%"></stop>
        </linearGradient>
        <linearGradient x1="50%" y1="0%" x2="50%" y2="100%" id="linearGradient-5">
            <stop stop-color="#244A71" offset="0%"></stop>
            <stop stop-color="#10243E" offset="100%"></stop>
        </linearGradient>
        <linearGradient x1="50%" y1="0%" x2="50%" y2="100%" id="linearGradient-6">
            <stop stop-color="#244A71" offset="0%"></stop>
            <stop stop-color="#10243E" offset="100%"></stop>
        </linearGradient>
    </defs>
    <g id="Logo/Colored" stroke="none" stroke-width="1" fill="none" fill-rule="evenodd">
        <g id="Group">
            <g id="clarity" fill-rule="nonzero">
                <path d="M7.87040475,8.95533055 C7.36910509,8.95533055 6.91793539,9.07762557 6.51689566,9.3222156 C6.11585592,9.56680564 5.77330115,9.89755807 5.48923134,10.3144729 C5.20516153,10.7313877 4.98793167,11.2177884 4.83754177,11.7736748 C4.68715188,12.3295612 4.61195693,12.913242 4.61195693,13.5247171 C4.61195693,14.3807822 4.70943186,15.1951558 4.90438173,15.967838 C5.0993316,16.7405202 5.37226142,17.421481 5.72317118,18.0107207 C6.07408095,18.5999603 6.49740067,19.0696843 6.99313034,19.4198928 C7.48886001,19.7701013 8.04307464,19.9452055 8.65577423,19.9452055 C9.16821389,19.9452055 9.63052358,19.8423665 10.0427033,19.6366885 C10.454883,19.4310105 10.8280728,19.1502879 11.1622726,18.7945205 C11.4964723,18.4387532 11.8000371,18.0246178 12.072967,17.5521144 C12.3458968,17.0796109 12.5993316,16.5765337 12.8332714,16.0428827 L15.03899,16.6265634 C14.5265503,18.6277546 13.6325659,20.1731189 12.3570368,21.2626563 C11.0815076,22.3521938 9.49127367,22.8969625 7.58633494,22.8969625 C6.53917564,22.8969625 5.5532863,22.6968434 4.62866691,22.2966051 C3.70404753,21.8963669 2.89918307,21.3515982 2.21407352,20.662299 C1.52896398,19.9729998 0.988674341,19.1697439 0.593204605,18.2525313 C0.197734868,17.3353186 0,16.3597379 0,15.3257892 C0,14.2028986 0.211659859,13.1439349 0.634979577,12.1488982 C1.05829929,11.1538614 1.63479391,10.2811197 2.36446342,9.53067302 C3.09413294,8.78022633 3.94912737,8.18542783 4.92944671,7.74627755 C5.90976606,7.30712726 6.95692536,7.08755211 8.07092462,7.08755211 C9.006684,7.08755211 9.85332343,7.18205281 10.6108429,7.3710542 C11.3683624,7.56005559 12.014482,7.82410165 12.5492016,8.16319238 C13.0839213,8.50228311 13.496101,8.90252134 13.7857408,9.36390709 C14.0753806,9.82529283 14.2202005,10.3283701 14.2202005,10.8731388 C14.2202005,11.1288465 14.1450056,11.3706571 13.9946157,11.5985706 C13.8442258,11.826484 13.6464909,12.0266031 13.4014111,12.1989279 C13.1563312,12.3712527 12.8750464,12.5074449 12.5575566,12.6075045 C12.2400668,12.707564 11.9197921,12.7575938 11.5967323,12.7575938 C11.2291125,12.7575938 10.9088377,12.707564 10.6359079,12.6075045 C10.3629781,12.5074449 10.1318232,12.3740322 9.94244337,12.2072662 C9.7530635,12.0405003 9.61102859,11.8487195 9.51633866,11.6319238 C9.42164872,11.4151281 9.37430375,11.189994 9.37430375,10.9565217 C9.37430375,10.7230494 9.36594876,10.4895771 9.34923877,10.2561048 C9.33252878,10.0226325 9.27682882,9.80861624 9.18213888,9.61405599 C9.08744894,9.41949573 8.93705904,9.2610681 8.73096918,9.13877308 C8.52487932,9.01647806 8.23802451,8.95533055 7.87040475,8.95533055 Z" id="Path" fill="url(#linearGradient-1)"></path>
                <polygon id="Path" fill="url(#linearGradient-2)" points="23.7493502 22.6134604 19.1708132 22.6134604 19.1708132 1.28409768 23.7493502 0"></polygon>
                <path d="M36.1359079,14.7421084 C35.6903082,14.9311098 35.2391385,15.1506849 34.7823988,15.4008338 C34.3256591,15.6509827 33.9134794,15.9261465 33.5458596,16.2263252 C33.1782399,16.5265039 32.8802451,16.8433591 32.6518752,17.176891 C32.4235054,17.5104229 32.3093205,17.8606313 32.3093205,18.2275164 C32.3093205,18.5165773 32.3483104,18.7917411 32.4262904,19.0530077 C32.5042703,19.3142744 32.6073153,19.5421878 32.7354252,19.7367481 C32.8635351,19.9313083 33.01114,20.0869565 33.1782399,20.2036927 C33.3453398,20.3204288 33.5235797,20.3787969 33.7129595,20.3787969 C34.0805793,20.3787969 34.459339,20.2620608 34.8492388,20.0285884 C35.2391385,19.7951161 35.6680282,19.5060552 36.1359079,19.1614056 L36.1359079,14.7421084 Z M40.7812848,22.6134604 L36.1359079,22.6134604 L36.1359079,21.3960691 C35.8796881,21.6073059 35.6290382,21.8046456 35.3839584,21.9880881 C35.1388786,22.1715307 34.8687338,22.3299583 34.573524,22.4633711 C34.2783141,22.5967838 33.9385444,22.7024022 33.5542146,22.7802263 C33.1698849,22.8580504 32.7215002,22.8969625 32.2090605,22.8969625 C31.507241,22.8969625 30.8750464,22.7969029 30.3124768,22.5967838 C29.7499072,22.3966647 29.2736725,22.1215009 28.8837727,21.7712924 C28.493873,21.421084 28.1930932,21.0041691 27.9814333,20.5205479 C27.7697735,20.0369267 27.6639436,19.5171729 27.6639436,18.9612865 C27.6639436,18.3720469 27.7753435,17.8439547 27.9981433,17.3770101 C28.2209432,16.9100655 28.524508,16.4875918 28.9088377,16.109589 C29.2931675,15.7315863 29.7443372,15.3924955 30.2623468,15.0923169 C30.7803565,14.7921382 31.3345711,14.5169744 31.9249907,14.2668255 C32.5154103,14.0166766 33.1253249,13.7887632 33.7547345,13.5830852 C34.3841441,13.3774072 35.0107687,13.1745086 35.6346082,12.9743895 L36.1359079,12.8576534 L36.1359079,11.3400834 C36.1359079,10.372841 35.949313,9.68632122 35.5761233,9.28052412 C35.2029335,8.87472702 34.7099889,8.67182847 34.0972893,8.67182847 C33.7296695,8.67182847 33.4205347,8.71907882 33.1698849,8.81357951 C32.9192351,8.90808021 32.7187152,9.03871352 32.5683253,9.20547945 C32.4179354,9.37224538 32.3121055,9.56402621 32.2508355,9.78082192 C32.1895655,9.99761763 32.1589306,10.2283105 32.1589306,10.4729005 C32.1589306,10.7619615 32.1282956,11.0399047 32.0670256,11.3067302 C32.0057557,11.5735557 31.8971407,11.8098074 31.7411808,12.0154854 C31.5852209,12.2211634 31.3707761,12.3851499 31.0978463,12.5074449 C30.8249165,12.6297399 30.4767917,12.6908874 30.053472,12.6908874 C29.3962124,12.6908874 28.8670628,12.5046655 28.466023,12.1322216 C28.0649833,11.7597776 27.8644634,11.2956125 27.8644634,10.739726 C27.8644634,10.206075 28.0427033,9.71411554 28.3991831,9.26384753 C28.7556628,8.81357951 29.2402525,8.424459 29.8529521,8.096486 C30.4656517,7.768513 31.1730412,7.51280524 31.9751207,7.32936272 C32.7772001,7.14592019 33.6238396,7.05419893 34.515039,7.05419893 C35.6067583,7.05419893 36.5480876,7.15147905 37.3390271,7.34603931 C38.1299666,7.54059956 38.7788711,7.81854278 39.2857408,8.17986897 C39.7926105,8.54119516 40.1685852,8.97756601 40.4136651,9.48898154 C40.6587449,10.0003971 40.7812848,10.5729601 40.7812848,11.2066706 L40.7812848,22.6134604 Z" id="Shape" fill="url(#linearGradient-3)"></path>
                <path d="M50.5777943,22.6134604 L45.9658374,22.6134604 L45.9658374,7.40440739 L50.5777943,7.40440739 L50.5777943,8.53841572 C51.1013739,8.01588247 51.6667286,7.59340878 52.2738582,7.27099464 C52.8809877,6.9485805 53.5354623,6.78737344 54.2372818,6.78737344 C54.6494616,6.78737344 55.0365763,6.84296208 55.3986261,6.95413937 C55.7606758,7.06531666 56.0781656,7.215406 56.3510954,7.40440739 C56.6240253,7.59340878 56.8384701,7.81298392 56.99443,8.06313282 C57.1503899,8.31328172 57.2283698,8.57732777 57.2283698,8.85527099 C57.2283698,9.12209649 57.1754549,9.36946595 57.069625,9.59737939 C56.963795,9.82529283 56.8189751,10.0170737 56.6351652,10.1727219 C56.4513554,10.3283701 56.2396955,10.4506651 56.0001857,10.5396069 C55.7606758,10.6285487 55.501671,10.6730197 55.2231712,10.6730197 C54.8555514,10.6730197 54.5547716,10.6146516 54.3208318,10.4979154 C54.0868919,10.3811793 53.8724471,10.2561048 53.6774972,10.1226921 C53.4825473,9.98927933 53.2875975,9.86420488 53.0926476,9.74746873 C52.8976977,9.63073258 52.6498329,9.5723645 52.3490531,9.5723645 C52.1930932,9.5723645 52.0371333,9.63073258 51.8811734,9.74746873 C51.7252135,9.86420488 51.5720386,10.0198531 51.4216487,10.2144133 C51.2712588,10.4089736 51.1236539,10.6341076 50.978834,10.8898154 C50.8340141,11.1455231 50.7003342,11.4067898 50.5777943,11.6736152 L50.5777943,22.6134604 Z" id="Path" fill="url(#linearGradient-4)"></path>
                <path d="M60.4912737,8.22156045 L65.1032306,6.95413937 L65.1032306,22.6134604 L60.4912737,22.6134604 L60.4912737,8.22156045 Z M60.2907538,2.53484217 C60.2907538,2.22354576 60.3548088,1.93170538 60.4829187,1.65932102 C60.6110286,1.38693667 60.7864835,1.1479055 61.0092833,0.942227516 C61.2320832,0.736549533 61.493873,0.575342466 61.7946528,0.458606313 C62.0954326,0.341870161 62.4184924,0.283502085 62.7638322,0.283502085 C63.1091719,0.283502085 63.4350167,0.341870161 63.7413665,0.458606313 C64.0477163,0.575342466 64.3122911,0.736549533 64.535091,0.942227516 C64.7578908,1.1479055 64.9361307,1.38693667 65.0698106,1.65932102 C65.2034905,1.93170538 65.2703305,2.22354576 65.2703305,2.53484217 C65.2703305,2.84613857 65.2034905,3.13797896 65.0698106,3.41036331 C64.9361307,3.68274767 64.7578908,3.92177884 64.535091,4.12745682 C64.3122911,4.3331348 64.0477163,4.49434187 63.7413665,4.61107802 C63.4350167,4.72781418 63.1091719,4.78618225 62.7638322,4.78618225 C62.4184924,4.78618225 62.0954326,4.72781418 61.7946528,4.61107802 C61.493873,4.49434187 61.2320832,4.3331348 61.0092833,4.12745682 C60.7864835,3.92177884 60.6110286,3.68274767 60.4829187,3.41036331 C60.3548088,3.13797896 60.2907538,2.84613857 60.2907538,2.53484217 Z" id="Shape" fill="url(#linearGradient-5)"></path>
                <path d="M69.034534,9.25550923 L69.034534,7.73793925 C69.5803936,7.73793925 70.0956183,7.60174707 70.5802079,7.32936272 C71.0647976,7.05697836 71.5048273,6.68453445 71.9002971,6.21203097 C72.2957668,5.7395275 72.6355366,5.18919992 72.9196064,4.56104824 C73.2036762,3.93289657 73.4125511,3.2630534 73.546231,2.55151876 L76.1028593,2.55151876 L76.1028593,7.40440739 L79.8626068,7.40440739 L79.8626068,9.25550923 L76.1028593,9.25550923 L76.1028593,19.0780226 C76.1028593,19.389319 76.1808392,19.6561445 76.3367991,19.8784991 C76.492759,20.1008537 76.7099889,20.212031 76.9884887,20.212031 C77.1555886,20.212031 77.3310434,20.1592218 77.5148533,20.0536033 C77.6986632,19.9479849 77.8769031,19.8229105 78.049573,19.67838 C78.2222429,19.5338495 78.3754177,19.389319 78.5090977,19.2447886 C78.6427776,19.1002581 78.7374675,18.9890808 78.7931675,18.9112567 L80.3973264,20.1620012 C80.1411066,20.5511217 79.8598218,20.9152273 79.553472,21.254318 C79.2471222,21.5934088 78.8934274,21.8880286 78.4923877,22.1381775 C78.0913479,22.3883264 77.6318232,22.5856661 77.1138136,22.7301965 C76.5958039,22.874727 75.9970293,22.9469923 75.3174898,22.9469923 C74.6825102,22.9469923 74.1227256,22.855271 73.6381359,22.6718285 C73.1535462,22.4883859 72.7525065,22.2326782 72.4350167,21.9047052 C72.1175269,21.5767322 71.8780171,21.1848322 71.7164872,20.7290054 C71.5549573,20.2731785 71.4741924,19.7673218 71.4741924,19.2114354 L71.4741924,9.25550923 L69.034534,9.25550923 Z" id="Path" fill="url(#linearGradient-6)"></path>
                <path d="M81.7385815,7.1209053 L86.6346082,7.1209053 L91.463795,16.5098273 L95.7081322,7.1209053 L99,7.1209053 L91.3134051,24.0476474 C91.0349053,24.6480048 90.6839955,25.1927735 90.2606758,25.6819535 C89.8373561,26.1711336 89.3694764,26.585269 88.8570368,26.9243597 C88.3445971,27.2634505 87.8126625,27.5274965 87.2612328,27.7164979 C86.7098032,27.9054993 86.1667286,28 85.6320089,28 C85.2309692,28 84.8494244,27.9499702 84.4873747,27.8499107 C84.1253249,27.7498511 83.8078351,27.6108795 83.5349053,27.4329958 C83.2619755,27.2551122 83.0447456,27.0466548 82.8832157,26.8076236 C82.7216859,26.5685924 82.6409209,26.3045464 82.6409209,26.0154854 C82.6409209,25.826484 82.6743409,25.6319238 82.7411808,25.4318046 C82.8080208,25.2316855 82.9249907,25.0510224 83.0920906,24.8898154 C83.2591905,24.7286083 83.4792053,24.5951956 83.7521352,24.4895771 C84.025065,24.3839587 84.3731898,24.3311495 84.7965095,24.3311495 C85.0750093,24.3311495 85.2978091,24.3783998 85.464909,24.4729005 C85.6320089,24.5674012 85.7851838,24.6674608 85.9244337,24.7730792 C86.0636836,24.8786976 86.2057185,24.9787572 86.3505384,25.0732579 C86.4953583,25.1677586 86.6791682,25.2150089 86.9019681,25.2150089 C87.046788,25.2150089 87.1999629,25.1288465 87.3614928,24.9565217 C87.5230227,24.7841969 87.6817675,24.5729601 87.8377274,24.3228112 C87.9936873,24.0726623 88.1412922,23.8058368 88.2805421,23.5223347 C88.4197921,23.2388326 88.539547,22.9803454 88.6398069,22.7468731 L89.1745266,21.5294818 L81.7385815,7.1209053 Z" id="Path" fill="#183B56"></path>
            </g>
            <path d="M105,15 C107.209139,15 109,13.3882251 109,11.4 C109,10.0745166 107.666667,8.2745166 105,6 C102.333333,8.2745166 101,10.0745166 101,11.4 C101,13.3882251 102.790861,15 105,15 Z" id="Oval-31" fill="#1576D8"></path>
        </g>
    </g>
</svg>