<svg aria-hidden="true" version="1.1" xmlns="http://www.w3.org/2000/svg" xmlns:xlink="http://www.w3.org/1999/xlink">
  <defs>
    <symbol id="chat">
      <g fill-rule="evenodd">
        <path d="M22,15.01 L22.0249378,15 L22.0249378,19.5857864 C22.0249378,20.1380712 21.5772226,20.5857864 21.0249378,20.5857864 C20.7597213,20.5857864 20.5053674,20.4804296 20.317831,20.2928932 L18.025,18 L6,18 C4.34314575,18 3,16.6568542 3,15 L3,6 C3,4.34314575 4.34314575,3 6,3 L19,3 C20.6568542,3 22,4.34314575 22,6 L22,15.01 Z" fill="currentColor"></path>
        <path d="M7.5,12 C6.67157288,12 6,11.3284271 6,10.5 C6,9.67157288 6.67157288,9 7.5,9 C8.32842712,9 9,9.67157288 9,10.5 C9,11.3284271 8.32842712,12 7.5,12 Z M12.5,12 C11.6715729,12 11,11.3284271 11,10.5 C11,9.67157288 11.6715729,9 12.5,9 C13.3284271,9 14,9.67157288 14,10.5 C14,11.3284271 13.3284271,12 12.5,12 Z M17.5,12 C16.6715729,12 16,11.3284271 16,10.5 C16,9.67157288 16.6715729,9 17.5,9 C18.3284271,9 19,9.67157288 19,10.5 C19,11.3284271 18.3284271,12 17.5,12 Z" fill="#fff"></path>
      </g>
    </symbol>

    <symbol id="mail">
      <g fill-rule="evenodd">
        <path d="M4,16 L5,16 C5.55228475,16 6,16.4477153 6,17 C6,17.5522847 5.55228475,18 5,18 L4,18 C3.44771525,18 3,17.5522847 3,17 C3,16.4477153 3.44771525,16 4,16 Z M1,11 L5,11 C5.55228475,11 6,11.4477153 6,12 C6,12.5522847 5.55228475,13 5,13 L1,13 C0.44771525,13 6.76353751e-17,12.5522847 0,12 C-6.76353751e-17,11.4477153 0.44771525,11 1,11 Z M3,6 L5,6 C5.55228475,6 6,6.44771525 6,7 C6,7.55228475 5.55228475,8 5,8 L3,8 C2.44771525,8 2,7.55228475 2,7 C2,6.44771525 2.44771525,6 3,6 Z" fill="currentColor" opacity="0.3"></path>
        <path d="M22,6 C23.1045695,6 24,6.8954305 24,8 L24,16 C24,17.1045695 23.1045695,18 22,18 L10,18 C8.8954305,18 8,17.1045695 8,16 L8,8 C8,6.8954305 8.8954305,6 10,6 L22,6 Z M21.9256908,8.31564728 C21.7631738,8.02389331 21.3867567,7.91473331 21.0849395,8.0718316 L16,10.7185839 L10.9150605,8.0718316 C10.6132433,7.91473331 10.2368262,8.02389331 10.0743092,8.31564728 C9.91179228,8.60740125 10.0247174,8.9712679 10.3265346,9.12836619 L15.705737,11.9282847 C15.8894428,12.0239051 16.1105572,12.0239051 16.294263,11.9282847 L21.6734654,9.12836619 C21.9752826,8.9712679 22.0882077,8.60740125 21.9256908,8.31564728 Z" fill="currentColor"></path>
      </g>
    </symbol>
  </defs>
</svg>
