<svg aria-hidden="true" version="1.1" xmlns="http://www.w3.org/2000/svg" xmlns:xlink="http://www.w3.org/1999/xlink">
  <defs>
    <symbol id="chat">
      <g fill-rule="evenodd">
        <path d="M22,15.01 L22.0249378,15 L22.0249378,19.5857864 C22.0249378,20.1380712 21.5772226,20.5857864 21.0249378,20.5857864 C20.7597213,20.5857864 20.5053674,20.4804296 20.317831,20.2928932 L18.025,18 L6,18 C4.34314575,18 3,16.6568542 3,15 L3,6 C3,4.34314575 4.34314575,3 6,3 L19,3 C20.6568542,3 22,4.34314575 22,6 L22,15.01 Z" fill="currentColor"></path>
        <path d="M7.5,12 C6.67157288,12 6,11.3284271 6,10.5 C6,9.67157288 6.67157288,9 7.5,9 C8.32842712,9 9,9.67157288 9,10.5 C9,11.3284271 8.32842712,12 7.5,12 Z M12.5,12 C11.6715729,12 11,11.3284271 11,10.5 C11,9.67157288 11.6715729,9 12.5,9 C13.3284271,9 14,9.67157288 14,10.5 C14,11.3284271 13.3284271,12 12.5,12 Z M17.5,12 C16.6715729,12 16,11.3284271 16,10.5 C16,9.67157288 16.6715729,9 17.5,9 C18.3284271,9 19,9.67157288 19,10.5 C19,11.3284271 18.3284271,12 17.5,12 Z" fill="#fff"></path>
      </g>
    </symbol>

    <symbol id="mail">
      <g fill-rule="evenodd">
        <path d="M4,16 L5,16 C5.55228475,16 6,16.4477153 6,17 C6,17.5522847 5.55228475,18 5,18 L4,18 C3.44771525,18 3,17.5522847 3,17 C3,16.4477153 3.44771525,16 4,16 Z M1,11 L5,11 C5.55228475,11 6,11.4477153 6,12 C6,12.5522847 5.55228475,13 5,13 L1,13 C0.44771525,13 6.76353751e-17,12.5522847 0,12 C-6.76353751e-17,11.4477153 0.44771525,11 1,11 Z M3,6 L5,6 C5.55228475,6 6,6.44771525 6,7 C6,7.55228475 5.55228475,8 5,8 L3,8 C2.44771525,8 2,7.55228475 2,7 C2,6.44771525 2.44771525,6 3,6 Z" fill="currentColor" opacity="0.3"></path>
        <path d="M22,6 C23.1045695,6 24,6.8954305 24,8 L24,16 C24,17.1045695 23.1045695,18 22,18 L10,18 C8.8954305,18 8,17.1045695 8,16 L8,8 C8,6.8954305 8.8954305,6 10,6 L22,6 Z M21.9256908,8.31564728 C21.7631738,8.02389331 21.3867567,7.91473331 21.0849395,8.0718316 L16,10.7185839 L10.9150605,8.0718316 C10.6132433,7.91473331 10.2368262,8.02389331 10.0743092,8.31564728 C9.91179228,8.60740125 10.0247174,8.9712679 10.3265346,9.12836619 L15.705737,11.9282847 C15.8894428,12.0239051 16.1105572,12.0239051 16.294263,11.9282847 L21.6734654,9.12836619 C21.9752826,8.9712679 22.0882077,8.60740125 21.9256908,8.31564728 Z" fill="currentColor"></path>
      </g>
    </symbol>

    <symbol id="dollar">
      <g fill-rule="evenodd" fill="currentColor">
        <rect opacity="0.3" x="11.5" y="3" width="2" height="4" rx="1"></rect>
        <rect opacity="0.3" x="11.5" y="17" width="2" height="5" rx="1"></rect>
        <path d="M15.493,9.044 C15.2143319,8.68933156 14.8501689,8.40750104 14.4005,8.1985 C13.9508311,7.98949895 13.5170021,7.885 13.099,7.885 C12.8836656,7.885 12.6651678,7.90399981 12.4435,7.942 C12.2218322,7.98000019 12.0223342,8.05283279 11.845,8.1605 C11.6676658,8.2681672 11.5188339,8.40749914 11.3985,8.5785 C11.2781661,8.74950085 11.218,8.96799867 11.218,9.234 C11.218,9.46200114 11.2654995,9.65199924 11.3605,9.804 C11.4555005,9.95600076 11.5948324,10.0889994 11.7785,10.203 C11.9621676,10.3170006 12.1806654,10.4214995 12.434,10.5165 C12.6873346,10.6115005 12.9723317,10.7096662 13.289,10.811 C13.7450023,10.9630008 14.2199975,11.1308324 14.714,11.3145 C15.2080025,11.4981676 15.6576646,11.7419985 16.063,12.046 C16.4683354,12.3500015 16.8039987,12.7268311 17.07,13.1765 C17.3360013,13.6261689 17.469,14.1866633 17.469,14.858 C17.469,15.6306705 17.3265014,16.2988305 17.0415,16.8625 C16.7564986,17.4261695 16.3733357,17.8916648 15.892,18.259 C15.4106643,18.6263352 14.8596698,18.8986658 14.239,19.076 C13.6183302,19.2533342 12.97867,19.342 12.32,19.342 C11.3573285,19.342 10.4263378,19.1741683 9.527,18.8385 C8.62766217,18.5028317 7.88033631,18.0246698 7.285,17.404 L9.413,15.238 C9.74233498,15.6433354 10.176164,15.9821653 10.7145,16.2545 C11.252836,16.5268347 11.7879973,16.663 12.32,16.663 C12.5606679,16.663 12.7949989,16.6376669 13.023,16.587 C13.2510011,16.5363331 13.4504991,16.4540006 13.6215,16.34 C13.7925009,16.2259994 13.9286662,16.0740009 14.03,15.884 C14.1313338,15.693999 14.182,15.4660013 14.182,15.2 C14.182,14.9466654 14.1186673,14.7313342 13.992,14.554 C13.8653327,14.3766658 13.6848345,14.2151674 13.4505,14.0695 C13.2161655,13.9238326 12.9248351,13.7908339 12.5765,13.6705 C12.2281649,13.5501661 11.8323355,13.420334 11.389,13.281 C10.9583312,13.141666 10.5371687,12.9770009 10.1255,12.787 C9.71383127,12.596999 9.34650161,12.3531682 9.0235,12.0555 C8.70049838,11.7578318 8.44083431,11.3968355 8.2445,10.9725 C8.04816568,10.5481645 7.95,10.032003 7.95,9.424 C7.95,8.67666293 8.10199848,8.03700266 8.406,7.505 C8.71000152,6.97299734 9.10899753,6.53600171 9.603,6.194 C10.0970025,5.85199829 10.6543302,5.60183412 11.275,5.4435 C11.8956698,5.28516587 12.5226635,5.206 13.156,5.206 C13.9160038,5.206 14.6918294,5.34533194 15.4835,5.624 C16.2751706,5.90266806 16.9686637,6.31433061 17.564,6.859 L15.493,9.044 Z"></path>
      </g>
    </symbol>

    <symbol id="clock">
      <g fill-rule="evenodd" fill="currentColor">
        <path opacity="0.3" d="M10.9630156,7.5 L11.0475062,7.5 C11.3043819,7.5 11.5194647,7.69464724 11.5450248,7.95024814 L12,12.5 L12,12.5 L15.2480695,14.3560397 C15.403857,14.4450611 15.5,14.6107328 15.5,14.7901613 L15.5,15 C15.5,15.2109164 15.3290185,15.3818979 15.1181021,15.3818979 C15.0841582,15.3818979 15.0503659,15.3773725 15.0176181,15.3684413 L10.3986612,14.1087258 C10.1672824,14.0456225 10.0132986,13.8271186 10.0316926,13.5879956 L10.4644883,7.96165175 C10.4845267,7.70115317 10.7017474,7.5 10.9630156,7.5 Z"></path>
        <path d="M22,12.5 C22,18.2039245 17.451858,22.8455734 11.7842951,22.9962258 L11.5,23 C5.70101013,23 1,18.2989899 1,12.5 C1,11.5151324 1.13559454,10.5619345 1.38913364,9.65805651 L3.31481075,10.1982117 C3.10672013,10.940064 3,11.7119264 3,12.5 C3,17.1944204 6.80557963,21 11.5,21 C16.1944204,21 20,17.1944204 20,12.5 C20,7.80557963 16.1944204,4 11.5,4 C10.5545108,4 9.63356281,4.15404793 8.7645726,4.44906446 C8.75955147,4.4507691 8.75453207,4.45247844 8.74951442,4.4541925 L9.93948308,5.87355717 C10.0088058,5.95617272 10.0495583,6.05898805 10.05566,6.16666224 C10.0712834,6.4423623 9.86044965,6.67852665 9.5847496,6.69415008 L4.71777931,6.96995273 C4.66931162,6.97269931 4.62070229,6.96837279 4.57348157,6.95710938 C4.30487471,6.89303938 4.13906482,6.62335149 4.20313482,6.35474463 L5.33163823,1.62361064 C5.35654118,1.51920756 5.41437908,1.4255891 5.49660017,1.35659741 C5.7081375,1.17909652 6.0235153,1.2066885 6.2010162,1.41822583 L7.39103417,2.83443099 L7.50990952,2.78469604 C8.74007887,2.2789228 10.0874665,2 11.5,2 C17.2989899,2 22,6.70101013 22,12.5 Z"></path>
      </g>
    </symbol>

    <symbol id="home_heart">
      <g fill-rule="evenodd">
        <path fill="currentColor" d="M3.95708309,8.41510581 L11.4785502,3.81866309 C11.7986625,3.62303933 12.2013374,3.62303952 12.5214495,3.81866357 L20.0429,8.41510557 C20.6374094,8.77841684 21,9.42493654 21,10.1216692 L21,19.0000673 C21,20.1046368 20.1045695,21.0000673 19,21.0000673 L4.99998155,21.0000673 C3.89541205,21.0000673 2.99998155,20.1046368 2.99998155,19.0000673 L2.99998155,10.1216704 C2.99998155,9.42493709 3.36257285,8.77841688 3.95708309,8.41510581 Z"></path>
        <path fill="#fff" d="M13.8,12 C13.1562,12 12.4033,12.7298529 12,13.2 C11.5967,12.7298529 10.8438,12 10.2,12 C9.0604,12 8.4,12.8888719 8.4,14.0201635 C8.4,15.2733878 9.6,16.6 12,18 C14.4,16.6 15.6,15.3 15.6,14.1 C15.6,12.9687084 14.9396,12 13.8,12 Z"></path>
      </g>
    </symbol>

    <symbol id="marker">
      <path  fill="currentColor" fill-rule="nonzero" d="M12.5,3 C17,3 20,6.75 20,10.5 C20,12.833374 17.8221463,16.0378895 13.4670213,20.1141718 C12.9116214,20.6315854 12.0572352,20.652543 11.4771349,20.1629825 C7.1596624,16.5085926 5,13.2883301 5,10.5 C5,6 8,3 12.5,3 Z M12.5,7 C11.1192881,7 10,8.11928813 10,9.5 C10,10.8807119 11.1192881,12 12.5,12 C13.8807119,12 15,10.8807119 15,9.5 C15,8.11928813 13.8807119,7 12.5,7 Z"></path>
    </symbol>

    <symbol id="heart">
      <g fill="currentColor" fill-rule="nonzero">
        <path opacity="0.3" d="M16.5,4.5 C14.8905,4.5 13.00825,6.32463215 12,7.5 C10.99175,6.32463215 9.1095,4.5 7.5,4.5 C4.651,4.5 3,6.72217984 3,9.55040872 C3,12.6834696 6,16 12,19.5 C18,16 21,12.75 21,9.75 C21,6.92177112 19.349,4.5 16.5,4.5 Z"></path>
        <path d="M7.5,4.5 C9.1095,4.5 10.99175,6.32463215 12,7.5 L12,19.5 C6,16 3,12.6834696 3,9.55040872 C3,6.72217984 4.651,4.5 7.5,4.5 Z"></path>
      </g>
    </symbol>

    <symbol id="donation" viewBox="0 0 28 28">
      <g fill-rule="evenodd" transform="translate(3.08, 3.36)" fill="currentColor">
        <path d="M11.8038132,12.7975436 C12.5004465,11.2841317 11.8584027,10.0371882 10.0849103,9.26487326 L7.14671132,8.05167713 C6.19481289,7.65866981 5.10412799,7.82063303 4.30729415,8.47332151 L1.60516982,10.6866379 L1.52658522,11.4746835 L1.4,17.92 L1.4,19.04 L4.66927269,19.04 L11.336837,20.9344854 C12.1779541,21.1734759 13.0823622,21.0052522 13.7815017,20.4797785 C18.1747398,17.1775732 21.1101376,14.9477907 21.5546765,14.5344499 C22.6323439,13.532414 23.056624,12.4183068 22.2887463,11.3200708 C21.6680734,10.4323703 20.6213355,10.3376705 19.3239836,10.9250231 L13.014133,14.1341556 L11.2398827,13.5699416 C11.4686465,13.3726679 11.6572986,13.1158415 11.8038132,12.7975436 Z"></path>
        <path opacity="0.3" d="M1.12,9.24 L0.84,9.24 C0.37608081,9.24 0,8.86391919 0,8.4 C0,7.93608081 0.37608081,7.56 0.84,7.56 L1.96,7.56 C2.42391919,7.56 2.8,7.93608081 2.8,8.4 L2.8,20.72 C2.8,21.1839192 2.42391919,21.56 1.96,21.56 L0.84,21.56 C0.37608081,21.56 0,21.1839192 0,20.72 C0,20.2560808 0.37608081,19.88 0.84,19.88 L1.12,19.88 L1.12,9.24 Z M16.5199994,1.12122754 L17.8674709,1.12122754 C18.3314586,1.12122754 18.7074704,1.49765183 18.7074704,1.96184131 L18.7074704,2.38627083 C18.7074704,2.85046031 18.3314586,3.2268846 17.8674709,3.2268846 C17.55854,3.2268846 17.2834155,3.05869073 17.1374306,2.80245508 L14.5756197,2.80245508 C14.421049,2.80245508 14.2956202,2.92802146 14.2956202,3.08306885 L14.2956202,3.64453103 C14.2956202,3.79957842 14.421049,3.9251448 14.5756197,3.9251448 L16.8000043,3.9251448 C17.8825503,3.9251448 18.7600027,4.80355976 18.7600027,5.88698611 L18.7600027,6.44675147 C18.7600027,7.53017783 17.8825503,8.40859278 16.8000043,8.40859278 L16.5199994,8.40859278 L16.5199994,8.67938623 C16.5199994,9.14357571 16.1439876,9.52 15.6799999,9.52 C15.2160123,9.52 14.8400005,9.14357571 14.8400005,8.67938623 L14.8400005,8.40859278 L13.4400076,8.40859278 C12.9660157,8.40859278 12.5859971,8.01641143 12.6003961,7.54243498 L12.6160092,7.0284934 C12.6301046,6.56451088 13.0173845,6.19969224 13.4811648,6.21381243 C13.8180598,6.22406949 14.1055013,6.43245889 14.2298488,6.72736524 L16.8000043,6.72736524 C16.954575,6.72736524 17.0800038,6.60179886 17.0800038,6.44675147 L17.0800038,5.88698611 C17.0800038,5.73193873 16.954575,5.60637234 16.8000043,5.60637234 L14.5756197,5.60637234 C13.4930737,5.60637234 12.6156213,4.72795739 12.6156213,3.64453103 L12.6156213,3.08306885 C12.6156213,1.99964249 13.4930737,1.12122754 14.5756197,1.12122754 L14.8400005,1.12122754 L14.8400005,0.84061377 C14.8400005,0.376424285 15.2160123,0 15.6799999,0 C16.1439876,0 16.5199994,0.376424285 16.5199994,0.84061377 L16.5199994,1.12122754 Z"></path>
      </g>
    </symbol>

    <symbol id="protection" viewBox="0 0 28 28">
      <path fill="currentColor" fill-rule="evenodd" d="M14.1902009,2.27328982 L24.2702009,5.91328982 C24.4921169,5.99342614 24.64,6.2040582 24.64,6.44 L24.64,14 C24.64,19.8869089 21.0958754,23.8248251 14.1488198,25.7398636 C14.0526724,25.7663677 13.9511912,25.7667138 13.8548653,25.7408659 C6.90550233,23.87609 3.36,19.936643 3.36,14 L3.36,6.44 C3.36,6.2040582 3.50788312,5.99342614 3.7297991,5.91328982 L13.8097991,2.27328982 C13.9327153,2.22890339 14.0672847,2.22890339 14.1902009,2.27328982 Z M17.9482627,10.2604353 L13.1910755,15.4208253 L10.9256862,13.0400948 C10.7124874,12.8160411 10.3580242,12.8072415 10.1339705,13.0204403 C9.90991683,13.2336391 9.90111718,13.5881022 10.114316,13.8121559 L12.7918672,16.6260334 C13.0150016,16.8605286 13.3898921,16.8575645 13.6092907,16.6195704 L18.7717394,11.0195704 C18.9813688,10.7921736 18.9669654,10.4378939 18.7395686,10.2282645 C18.5121718,10.0186352 18.1578921,10.0330385 17.9482627,10.2604353 Z"></path>
    </symbol>

    <symbol id="drop" viewBox="0 0 28 28">
      <g fill="currentColor" fill-rule="evenodd">
        <path opacity="0.3" d="M23,16.5 C23,13.1862915 20,8.6862915 14,3 C14,8.6862915 14,13.1862915 14,16.5 C14,18.3153332 14,25.4998488 14,25.5001512 C18.9705627,25.5001512 23,21.4705627 23,16.5 Z"></path>
        <path transform="translate(9.5, 14.2501) scale(-1, 1) translate(-9.5, -14.2501)" d="M14,16.5 C14,13.1862915 11,8.6862915 5,3 C5,8.6862915 5,13.1862915 5,16.5 C5,18.3153332 5,25.4998488 5,25.5001512 C9.97056275,25.5001512 14,21.4705627 14,16.5 Z"></path>
      </g>
    </symbol>

    <symbol id="gas_stove">
      <g fill="currentColor" fill-rule="evenodd">
        <path d="M21,10 L3,10 L3,5 C3,4.44771525 3.44771525,4 4,4 L20,4 C20.5522847,4 21,4.44771525 21,5 L21,10 Z M16,6 C15.4477153,6 15,6.44771525 15,7 C15,7.55228475 15.4477153,8 16,8 C16.5522847,8 17,7.55228475 17,7 C17,6.44771525 16.5522847,6 16,6 Z M21,11 L21,21 C21,21.5522847 20.5522847,22 20,22 L4,22 C3.44771525,22 3,21.5522847 3,21 L3,11 L21,11 Z M16,13 L8,13 C7.44771525,13 7,13.5223345 7,14.1666667 L7,18.8333333 C7,19.4776655 7.44771525,20 8,20 L16,20 C16.5522847,20 17,19.4776655 17,18.8333333 L17,14.1666667 C17,13.5223345 16.5522847,13 16,13 Z M8,6 C8.55228475,6 9,6.44771525 9,7 C9,7.55228475 8.55228475,8 8,8 C7.44771525,8 7,7.55228475 7,7 C7,6.44771525 7.44771525,6 8,6 Z"></path>
        <path opacity="0.3" d="M6,3 L10,3 C10.5522847,3 11,3.44771525 11,4 L11,4 L11,4 L5,4 C5,3.44771525 5.44771525,3 6,3 Z M16,3 L18,3 C18.5522847,3 19,3.44771525 19,4 L19,4 L19,4 L15,4 C15,3.44771525 15.4477153,3 16,3 Z"></path>
      </g>
    </symbol>

    <symbol id="wine">
      <g fill="currentColor">
        <path fill-rule="evenodd" opacity="0.3" d="M16,23 L8,23 C8.57758121,21.8448376 9.72352373,21.0906511 11.0006393,21.0076378 L11,15.5 L13,15.5 L13.0003652,21.0077032 C14.2770771,21.0910466 15.4225702,21.8451404 16,23 Z"></path>
        <path fill-rule="nonzero" d="M8,4 L7.5,8 C13.5,8 16.5,8 16.5,8 C16.4375594,7.20614914 16.2708927,5.87281581 16,4 L8,4 Z M8.28594472,2 L15.7140072,2 C16.9470152,2 17.9721494,2.92839923 18.0667168,4.13070039 L18.5415132,10.1671184 C18.816379,13.6616787 16.142506,16.712495 12.5692506,16.9813073 C12.4036601,16.9937645 12.2376417,17 12.071562,17 L11.9283899,17 C8.34457839,17 5.43932511,14.1587301 5.43932511,10.6538462 C5.43932511,10.4914241 5.44570102,10.329062 5.45843875,10.1671184 L5.9332352,4.13070039 C6.0278026,2.92839923 7.05293673,2 8.28594472,2 Z"></path>
      </g>
    </symbol>

    <symbol id="rain">
      <g fill="currentColor" fill-rule="evenodd">
        <path opacity="0.3" d="M4.30769231,13 C5.58219558,13 6.61538462,11.9926407 6.61538462,10.75 C6.61538462,9.92157288 5.84615385,8.67157288 4.30769231,7 C2.76923077,8.67157288 2,9.92157288 2,10.75 C2,11.9926407 3.03318904,13 4.30769231,13 Z M19.6923077,13 C20.966811,13 22,11.9926407 22,10.75 C22,9.92157288 21.2307692,8.67157288 19.6923077,7 C18.1538462,8.67157288 17.3846154,9.92157288 17.3846154,10.75 C17.3846154,11.9926407 18.4178044,13 19.6923077,13 Z M8.30769231,20 C9.58219558,20 10.6153846,18.9926407 10.6153846,17.75 C10.6153846,16.9215729 9.84615385,15.6715729 8.30769231,14 C6.76923077,15.6715729 6,16.9215729 6,17.75 C6,18.9926407 7.03318904,20 8.30769231,20 Z M16,20 C17.2745033,20 18.3076923,18.9926407 18.3076923,17.75 C18.3076923,16.9215729 17.5384615,15.6715729 16,14 C14.4615385,15.6715729 13.6923077,16.9215729 13.6923077,17.75 C13.6923077,18.9926407 14.7254967,20 16,20 Z"></path>
        <path d="M12,13 C13.2745033,13 14.3076923,11.9926407 14.3076923,10.75 C14.3076923,9.92157288 13.5384615,8.67157288 12,7 C10.4615385,8.67157288 9.69230769,9.92157288 9.69230769,10.75 C9.69230769,11.9926407 10.7254967,13 12,13 Z"></path>
      </g>
    </symbol>

    <symbol id="key">
      <g fill="currentColor" fill-rule="evenodd">
        <polygon opacity="0.3" transform="translate(8.8858, 16.1142) rotate(-315) translate(-8.8858, -16.1142)" points="6.89784488 10.6187476 6.76452164 19.4882481 8.88584198 21.6095684 11.0071623 19.4882481 9.59294876 18.0740345 10.9659914 16.7009919 9.55177787 15.2867783 11.0071623 13.8313939 10.8837471 10.6187476"></polygon>
        <path transform="translate(15.9853, 8.9853) rotate(-315) translate(-15.9853, -8.9853)" d="M15.9852814,2.98528137 C19.2989899,2.98528137 21.9852814,5.67157288 21.9852814,8.98528137 C21.9852814,12.2989899 19.2989899,14.9852814 15.9852814,14.9852814 C12.6715729,14.9852814 9.98528137,12.2989899 9.98528137,8.98528137 C9.98528137,5.67157288 12.6715729,2.98528137 15.9852814,2.98528137 Z M16.1776695,6.07106781 C15.3492424,6.07106781 14.6776695,6.74264069 14.6776695,7.57106781 C14.6776695,8.39949494 15.3492424,9.07106781 16.1776695,9.07106781 C17.0060967,9.07106781 17.6776695,8.39949494 17.6776695,7.57106781 C17.6776695,6.74264069 17.0060967,6.07106781 16.1776695,6.07106781 Z"></path>
      </g>
    </symbol>

    <symbol id="water_mixer">
      <g fill="currentColor" fill-rule="evenodd">
        <path opacity="0.3" d="M8,18 C10.209139,18 12,19.790861 12,22 L12,22 L12,22 L4,22 C4,19.790861 5.790861,18 8,18 Z"></path>
        <path d="M13,2 C16.3137085,2 19,4.6862915 19,8 L19,9 L17,9 L17,8 C17,5.790861 15.209139,4 13,4 C10.790861,4 9,5.790861 9,8 L9.00076134,12.1262135 C10.7256022,12.570521 12,14.1364348 12,16 C12,18.209139 10.209139,20 8,20 C5.790861,20 4,18.209139 4,16 C4,14.1360729 5.27489272,12.5699129 7.00024347,12.1259548 L7,8 C7,4.6862915 9.6862915,2 13,2 Z M8,14 C6.8954305,14 6,14.8954305 6,16 C6,17.1045695 6.8954305,18 8,18 C9.1045695,18 10,17.1045695 10,16 C10,14.8954305 9.1045695,14 8,14 Z"></path>
        <path opacity="0.3" d="M18,17 C19.1045695,17 20,16.1045695 20,15 C20,14.2636203 19.3333333,13.2636203 18,12 C16.6666667,13.2636203 16,14.2636203 16,15 C16,16.1045695 16.8954305,17 18,17 Z"></path>
      </g>
    </symbol>

    <symbol id="pricing_ro" viewBox="0 0 48 48">
      <g fill-rule="evenodd">
        <rect stroke="currentColor" fill="currentColor" x="5.5" y="13.2219608" width="38" height="7.31595779" rx="1.2"></rect>
        <rect fill="#FFFFFF" stroke="currentColor" opacity="0.3" stroke-width="3" x="10.7325581" y="6.5" width="27.8372093" height="4.42496231" rx="2.21248116"></rect>
        <path fill="currentColor" opacity="0.3" d="M7.24707031,21.4895071 L17.0056323,21.4895071 L15.9457213,23.4814853 L15.9457213,41.8 C15.9457213,42.4627417 15.408463,43 14.7457213,43 L9.40158067,43 C8.73883897,43 8.20158067,42.4627417 8.20158067,41.8 L8.20158067,23.4814853 L8.20158067,23.4814853 L7.24707031,21.4895071 Z"></path>
        <path fill="currentColor" opacity="0.3" d="M19.6424191,21.4895071 L29.4009811,21.4895071 L28.3410701,23.4814853 L28.3410701,41.8 C28.3410701,42.4627417 27.8038118,43 27.1410701,43 L21.7969295,43 C21.1341878,43 20.5969295,42.4627417 20.5969295,41.8 L20.5969295,23.4814853 L20.5969295,23.4814853 L19.6424191,21.4895071 Z"></path>
        <path fill="currentColor" opacity="0.3" d="M32.037768,21.4895071 L41.7963299,21.4895071 L40.736419,23.4814853 L40.736419,41.8 C40.736419,42.4627417 40.1991607,43 39.536419,43 L34.1922783,43 C33.5295366,43 32.9922783,42.4627417 32.9922783,41.8 L32.9922783,23.4814853 L32.9922783,23.4814853 L32.037768,21.4895071 Z"></path>
        <rect fill="currentColor" x="10" y="23" width="1" height="19"></rect>
        <rect fill="currentColor" x="22" y="23" width="1" height="19"></rect>
        <rect fill="currentColor" x="34" y="23" width="1" height="19"></rect>
      </g>
    </symbol>

    <symbol id="pricing_non_ro" viewBox="0 0 48 48">
      <g fill-rule="evenodd">
        <rect fill="currentColor" x="4" y="9" width="39" height="8.31595779" rx="1.2"></rect>
        <path fill="currentColor" opacity="0.3" d="M8.24707031,17.7675463 L21.2470703,17.7675463 L19.8350956,19.7595245 L19.8350956,38.0780392 C19.8350956,38.7407809 19.2978373,39.2780392 18.6350956,39.2780392 L10.7186342,39.2780392 C10.0558925,39.2780392 9.51863416,38.7407809 9.51863416,38.0780392 L9.51863416,19.7595245 L9.51863416,19.7595245 L8.24707031,17.7675463 Z"></path>
        <path fill="currentColor" opacity="0.3" d="M24.4009811,17.7675463 L37.4009811,17.7675463 L35.9890064,19.7595245 L35.9890064,38.0780392 C35.9890064,38.7407809 35.4517481,39.2780392 34.7890064,39.2780392 L26.872545,39.2780392 C26.2098033,39.2780392 25.672545,38.7407809 25.672545,38.0780392 L25.672545,19.7595245 L25.672545,19.7595245 L24.4009811,17.7675463 Z"></path>
        <rect fill="currentColor" x="11.9144227" y="19.2780392" width="1" height="19"></rect>
        <rect fill="currentColor" x="16.9144227" y="19.2780392" width="1" height="19"></rect>
        <rect fill="currentColor" x="33" y="19.2780392" width="1" height="19"></rect>
        <rect fill="currentColor" x="28" y="19.2780392" width="1" height="19"></rect>
      </g>
    </symbol>

    <symbol id="bath" viewBox="0 0 24 24">
      <g fill="currentColor" fill-rule="nonzero">
        <path opacity="0.3" d="M6,10 C6,10.5522847 5.55228475,11 5,11 C4.44771525,11 4,10.5522847 4,10 L4,6 C4,4.34314575 5.34314575,3 7,3 C8.65685425,3 10,4.34314575 10,6 C10,6.55228475 9.55228475,7 9,7 C8.44771525,7 8,6.55228475 8,6 C8,5.44771525 7.55228475,5 7,5 C6.44771525,5 6,5.44771525 6,6 L6,10 Z"></path>
        <path opacity="0.3" d="M6,20 L4,20 C4,17.2385763 6.23857625,16 9,16 L15,16 C17.7614237,16 20,17.2385763 20,20 L18,20 C18,18.3431458 16.6568542,18 15,18 L9,18 C7.34314575,18 6,18.3431458 6,20 Z"></path>
        <path fill-rule="evenodd" d="M23,9 L22.4942047,13.5521576 C22.2128532,16.084321 20.0725321,18 17.524786,18 L7.47521397,18 C4.92746788,18 2.78714678,16.084321 2.50579529,13.5521576 L2,9 L23,9 Z M20,10.75 C19.5857864,10.75 19.25,11.0857864 19.25,11.5 C19.25,12.9305987 18.694479,14.0416408 17.55,14.9 C17.2186292,15.1485281 17.1514719,15.6186292 17.4,15.95 C17.6485281,16.2813708 18.1186292,16.3485281 18.45,16.1 C19.9721877,14.9583592 20.75,13.4027346 20.75,11.5 C20.75,11.0857864 20.4142136,10.75 20,10.75 Z"></path>
      </g>
    </symbol>

    <symbol id="toilet" viewBox="0 0 24 24">
      <g fill="currentColor" fill-rule="evenodd">
        <rect opacity="0.3" x="6" y="1" width="12" height="4" rx="1"></rect>
        <path d="M15.2344356,6 C16.2430821,6 17.0938841,6.75107289 17.2189913,7.75193053 L17.8630308,12.8992129 C17.9527423,13.4150082 18,13.9506056 18,14.5 C18,18.6421356 15.3137085,22 12,22 C8.6862915,22 6,18.6421356 6,14.5 C6,13.9506056 6.04725775,13.4150082 6.13696918,12.8992129 L6.78100868,7.75193053 C6.90611589,6.75107289 7.7569179,6 8.76556444,6 L15.2344356,6 Z M12,10 C9.790861,10 8,12.2385763 8,15 C8,17.7614237 9.790861,20 12,20 C14.209139,20 16,17.7614237 16,15 C16,12.2385763 14.209139,10 12,10 Z"></path>
        <path opacity="0.3" d="M11,14 L13,14 C13.2761424,14 13.5,14.2238576 13.5,14.5 L13.5,15.5 C13.5,16.3284271 12.8284271,17 12,17 C11.1715729,17 10.5,16.3284271 10.5,15.5 L10.5,14.5 C10.5,14.2238576 10.7238576,14 11,14 Z"></path>
      </g>
    </symbol>

    <symbol id="washer" viewBox="0 0 24 24">
      <g fill="currentColor" fill-rule="evenodd">
        <path fill-rule="nonzero" d="M6,4 C5.44771525,4 5,4.44771525 5,5 L5,8 L19,8 L19,5 C19,4.44771525 18.5522847,4 18,4 L6,4 Z M18,2 C19.6568542,2 21,3.34314575 21,5 L21,20 C21,21.6568542 19.6568542,23 18,23 L6,23 C4.34314575,23 3,21.6568542 3,20 L3,5 C3,3.34314575 4.34314575,2 6,2 L18,2 Z M12,9.5 C8.6862915,9.5 6,12.1862915 6,15.5 C6,18.8137085 8.6862915,21.5 12,21.5 C15.3137085,21.5 18,18.8137085 18,15.5 C18,12.1862915 15.3137085,9.5 12,9.5 Z M7,7 C7.55228475,7 8,6.55228475 8,6 C8,5.44771525 7.55228475,5 7,5 C6.44771525,5 6,5.44771525 6,6 C6,6.55228475 6.44771525,7 7,7 Z M10,7 C10.5522847,7 11,6.55228475 11,6 C11,5.44771525 10.5522847,5 10,5 C9.44771525,5 9,5.44771525 9,6 C9,6.55228475 9.44771525,7 10,7 Z"></path>
        <path opacity="0.3" d="M12,19.5 C14.209139,19.5 16,17.709139 16,15.5 C16,13.290861 14.209139,11.5 12,11.5 C9.790861,11.5 8,13.290861 8,15.5 C8,17.709139 9.790861,19.5 12,19.5 Z"></path>
      </g>
    </symbol>

    <symbol id="wifi" viewBox="0 0 24 24">
      <g fill="currentColor" fill-rule="evenodd">
        <path fill-rule="nonzero" opacity="0.3" d="M11.9984835,10.4545455 C14.8857906,10.4545455 17.5648042,11.7460992 19.366142,13.9305937 L17.2619853,15.6656848 C15.9733542,14.1029531 14.0626842,13.1818182 11.9984835,13.1818182 C9.94104045,13.1818182 8.03600715,14.0968752 6.74725784,15.6508398 L4.64798148,13.9098472 C6.44949126,11.7375997 9.12064835,10.4545455 11.9984835,10.4545455 Z M11.9984835,5 C16.519438,5 20.7143528,7.01399004 23.5459782,10.4257575 L21.4473503,12.1675316 C19.1284914,9.37358605 15.6994058,7.72727273 11.9984835,7.72727273 C8.30267753,7.72727273 4.87785708,9.36900008 2.55893241,12.1563207 L0.462362714,10.4120696 C3.29407133,7.00838857 7.48378666,5 11.9984835,5 Z"></path>
        <path d="M15.1189503,17.3544974 L13.0392442,19.1188213 L11.9619232,20 L10.9331836,19.1485815 L8.80489611,17.4431757 C9.57552634,16.4814558 10.741377,15.9090909 11.9984835,15.9090909 C13.215079,15.9090909 14.347452,16.4450896 15.1189503,17.3544974 Z"></path>
      </g>
    </symbol>

    <symbol id="hammer" viewBox="0 0 24 24">
      <g fill="currentColor" fill-rule="evenodd">
        <path opacity="0.3" d="M18.4246212,12.6464466 L21.2530483,9.81801948 C21.4483105,9.62275734 21.764893,9.62275734 21.9601551,9.81801948 L22.6672619,10.5251263 C22.862524,10.7203884 22.862524,11.0369709 22.6672619,11.232233 L19.8388348,14.0606602 C19.6435726,14.2559223 19.3269901,14.2559223 19.131728,14.0606602 L18.4246212,13.3535534 C18.2293591,13.1582912 18.2293591,12.8417088 18.4246212,12.6464466 Z M3.22182541,17.9497475 L13.1213203,8.05025253 C13.5118446,7.65972824 14.1450096,7.65972824 14.5355339,8.05025253 L15.9497475,9.46446609 C16.3402718,9.85499039 16.3402718,10.4881554 15.9497475,10.8786797 L6.05025253,20.7781746 C5.65972824,21.1686989 5.02656326,21.1686989 4.63603897,20.7781746 L3.22182541,19.363961 C2.83130112,18.9734367 2.83130112,18.3402718 3.22182541,17.9497475 Z"></path>
        <path transform="translate(14.8891, 6.2825) rotate(-45) translate(-14.8891, -6.2825)" d="M12.3890873,1.28248558 C15.150511,1.28248558 17.3890873,3.52106183 17.3890873,6.28248558 L17.3890873,10.7824856 C17.3890873,11.058628 17.1652297,11.2824856 16.8890873,11.2824856 L12.8890873,11.2824856 C12.6129449,11.2824856 12.3890873,11.058628 12.3890873,10.7824856 L12.3890873,1.28248558 L12.3890873,1.28248558 Z"></path>
      </g>
    </symbol>

    <symbol id="shield_protected" viewBox="0 0 24 24">
      <g fill="currentColor" fill-rule="evenodd">
        <path opacity="0.3" d="M4,4 L11.6314229,2.5691082 C11.8750185,2.52343403 12.1249815,2.52343403 12.3685771,2.5691082 L20,4 L20,4 L20,13.2830094 C20,16.2173861 18.4883464,18.9447835 16,20.5 L12.5299989,22.6687507 C12.2057287,22.8714196 11.7942713,22.8714196 11.4700011,22.6687507 L8,20.5 C5.51165358,18.9447835 4,16.2173861 4,13.2830094 L4,4 L4,4 Z"></path>
        <path d="M12,8 C13.3807119,8 14.5,9.11928813 14.5,10.5 L14.5,11 C15.0522847,11 15.5,11.4477153 15.5,12 L15.5,15 C15.5,15.5522847 15.0522847,16 14.5,16 L9.5,16 C8.94771525,16 8.5,15.5522847 8.5,15 L8.5,12 C8.5,11.4477153 8.94771525,11 9.5,11 L9.5,11 L9.5,10.5 C9.5,9.11928813 10.6192881,8 12,8 Z M12,9 C11.1715729,9 10.5,9.67157288 10.5,10.5 L10.5,11 L13.5,11 L13.5,10.5 C13.5,9.67157288 12.8284271,9 12,9 Z"></path>
      </g>
    </symbol>

    <symbol id="battery_charging" viewBox="0 0 24 24">
      <g fill="currentColor" fill-rule="evenodd">
        <path fill-rule="nonzero" d="M4,9 L4,15 L17,15 L17,9 L4,9 Z M4,7 L17,7 C18.1045695,7 19,7.8954305 19,9 L19,15 C19,16.1045695 18.1045695,17 17,17 L4,17 C2.8954305,17 2,16.1045695 2,15 L2,9 C2,7.8954305 2.8954305,7 4,7 Z"></path>
        <path opacity="0.3" d="M10.3561738,14.0547828 L11.7400488,12.324939 C11.8090507,12.2386866 11.7950664,12.1128281 11.708814,12.0438262 C11.6733514,12.0154562 11.6292893,12 11.583875,12 L11,12 L11,12 L11,10.1605551 C11,10.0500982 10.9104569,9.96055513 10.8,9.96055513 C10.7331294,9.96055513 10.6706831,9.99397535 10.6335899,10.0496151 L9.20729336,12.18906 C9.14602287,12.2809657 9.17085764,12.4051396 9.26276338,12.4664101 C9.29561688,12.4883124 9.33421842,12.5 9.37370342,12.5 L10,12.5 L10,12.5 L10,13.9298438 C10,14.0403007 10.0895431,14.1298438 10.2,14.1298438 C10.2607567,14.1298438 10.3182193,14.1022258 10.3561738,14.0547828 Z"></path>
        <path opacity="0.3" d="M20,10 L21,10 C21.5522847,10 22,10.4477153 22,11 L22,13 C22,13.5522847 21.5522847,14 21,14 L20,14 L20,14 L20,10 Z"></path>
      </g>
    </symbol>

    <symbol id="tips_smart" viewBox="0 0 146 146">
      <g fill="none" fill-rule="evenodd">
        <path d="M131.267641,37.8516874 C139.254013,51.1046021 133.50586,72.8281897 122.69628,90.6852839 C111.861265,108.567816 95.9139549,122.583854 79.3053527,122.990853 C62.6713163,123.397852 45.3251194,110.170375 36.9572325,93.7123412 C28.5893457,77.2797445 29.1743348,57.5911534 37.8474333,43.9566769 C46.5205318,30.296763 63.2563054,22.6655261 82.4592067,21.2410286 C101.662108,19.816531 123.306703,24.6242102 131.267641,37.8516874 Z" fill="#FAAD13" opacity="0.100000001"></path>
        <path d="M26.0095834,101.0736 L26.0095834,69.0256 C26.0095834,61.2936135 32.2775969,55.0256 40.0095834,55.0256 L59.4366413,55.0256 C67.1686278,55.0256 73.4366413,61.2936135 73.4366413,69.0256 L73.4366413,101.0736 C73.4366413,108.805586 67.1686278,115.0736 59.4366413,115.0736 L40.0095834,115.0736 C32.2775969,115.0736 26.0095834,108.805586 26.0095834,101.0736 Z" fill="#FFFFFF"></path>
        <g transform="translate(12, 31)">
          <circle stroke="#322C2C" stroke-width="4" cx="40.5" cy="30.375" r="27"></circle>
          <path d="M33.75,74.25 L47.25,74.25 L47.25,77 C47.25,79.209139 45.459139,81 43.25,81 L37.75,81 C35.540861,81 33.75,79.209139 33.75,77 L33.75,74.25 L33.75,74.25 Z" fill="#322C2C"></path>
          <path d="M30.375,67.5 C28.511039,67.5 27,65.988961 27,64.125 C27,62.261039 28.511039,60.75 30.375,60.75 C28.511039,60.75 27,59.238961 27,57.375 C27,55.511039 28.511039,54 30.375,54 L50.625,54 C52.488961,54 54,55.511039 54,57.375 C54,59.238961 52.488961,60.75 50.625,60.75 C52.488961,60.75 54,62.261039 54,64.125 C54,65.988961 52.488961,67.5 50.625,67.5 C52.488961,67.5 54,69.011039 54,70.875 C54,72.738961 52.488961,74.25 50.625,74.25 L30.375,74.25 C28.511039,74.25 27,72.738961 27,70.875 C27,69.011039 28.511039,67.5 30.375,67.5 Z" fill="#322C2C"></path>
        </g>
      </g>
    </symbol>

    <symbol id="tips_alerts" viewBox="0 0 146 146">
      <g fill="none" fill-rule="evenodd">
        <path d="M129.782489,34.9007526 C138.279041,50.0295774 139.660106,68.8954027 131.854087,82.969429 C124.078091,97.0434552 107.084988,106.265408 90.5722559,105.994174 C74.0595235,105.72294 58.0271616,95.9283825 46.6183647,79.7748962 C35.239591,63.62141 28.4843823,41.1391325 36.5005633,26.2815417 C44.5167442,11.4540879 67.3043149,4.25132071 86.4891075,6.36091779 C105.703923,8.44037777 121.285938,19.7719278 129.782489,34.9007526 Z" fill="#00B8D9" opacity="0.100000001"></path>
        <g transform="translate(3, 29)">
          <path d="M91.1666667,13.25 C94.4803752,13.25 97.1666667,15.9362915 97.1666667,19.25 L97.1663333,66.293 L97.2768087,66.25 L97.2768087,92.3382395 C97.2768087,93.442809 96.3813782,94.3382395 95.2768087,94.3382395 C94.7463757,94.3382395 94.2376679,94.1275259 93.8625951,93.7524531 L79.6103333,79.5 L57.3442433,79.5003049 C56.2080148,62.2353405 41.8441393,48.5833333 24.2916667,48.5833333 C18.7084321,48.5833333 13.4478201,49.9646449 8.83292949,52.4041693 L8.83333333,19.25 C8.83333333,15.9362915 11.5196248,13.25 14.8333333,13.25 L91.1666667,13.25 Z M68.6666667,30.9166667 L24.0833333,30.9166667 C22.9787638,30.9166667 22.0833333,31.8120972 22.0833333,32.9166667 L22.0833333,37.75 C22.0833333,38.8545695 22.9787638,39.75 24.0833333,39.75 L68.6666667,39.75 C69.7712362,39.75 70.6666667,38.8545695 70.6666667,37.75 L70.6666667,32.9166667 C70.6666667,31.8120972 69.7712362,30.9166667 68.6666667,30.9166667 Z" stroke="#2E2E2E" stroke-width="4"></path>
          <path d="M24.0833333,61.8333333 L28.9166667,61.8333333 C30.0212362,61.8333333 30.9166667,62.7287638 30.9166667,63.8333333 L30.9166667,77.5 C30.9166667,78.6045695 30.0212362,79.5 28.9166667,79.5 L24.0833333,79.5 C22.9787638,79.5 22.0833333,78.6045695 22.0833333,77.5 L22.0833333,63.8333333 C22.0833333,62.7287638 22.9787638,61.8333333 24.0833333,61.8333333 Z M26.5,92.75 C28.9392576,92.75 30.9166667,90.772591 30.9166667,88.3333333 C30.9166667,85.8940757 28.9392576,83.9166667 26.5,83.9166667 C24.0607424,83.9166667 22.0833333,85.8940757 22.0833333,88.3333333 C22.0833333,90.772591 24.0607424,92.75 26.5,92.75 Z" fill="#2E2E2E" opacity="0.3"></path>
        </g>
      </g>
    </symbol>

    <symbol id="tips_detects" viewBox="0 0 146 146">
      <g fill="none" fill-rule="evenodd">
        <path d="M102.876435,53.7106321 C110.522903,70.6590437 106.867016,90.4665338 97.392604,105.714953 C87.9181924,120.989129 72.6252562,131.704234 55.2726654,132.889078 C37.9200746,134.073921 18.507829,125.702745 9.70280518,110.840688 C0.897781343,95.9528737 2.67423352,74.5741783 12.3803563,56.4409233 C22.0864791,38.3076683 39.6965267,23.3940964 57.9759622,23.0077345 C76.2553977,22.6213725 95.2042209,36.7622205 102.876435,53.7106321 Z" fill="#1565D8" opacity="0.100000001"></path>
        <g transform="translate(46, 23)">
          <polygon fill="#FFFFFF" points="15 55 26.5770432 45.1616678 45.6420862 55 42 62.4873581 54.2755351 64 80.1387973 56.1621922 85.2727372 58.5708747 85.2727372 65.9785072 55.855696 86.3779066 31.8909785 78.231983 15 78.231983"></polygon>
          <path d="M16,76 L31.4262847,76 L32.0994591,76.1166954 L53.0544074,83.6068984 C54.7617287,84.2171687 56.6534328,84.0226676 58.2008485,83.0777372 C73.3869601,73.8046434 80.526212,66.8943551 81.8424833,65.797881 C82.1791982,65.5173923 82.7498732,64.7857284 83.4687849,63.6539252 C83.9975423,62.8213608 84.1418208,61.8012992 83.8647026,60.8547511 C83.3330965,59.0389526 81.4301491,57.997909 79.6438802,58.5206221 L54.6043221,66.2725195 C54.2856849,66.3711652 53.9474354,66.3885504 53.6203637,66.3230926 L34.0712759,62.4106813 L33.7791504,62.3782229 C32.6813368,62.2562436 31.8902667,61.2674061 32.012246,60.1695924 C32.0176773,60.120711 32.0248272,60.0724378 32.0336287,60.0248262 C32.2613677,58.8823266 33.3151075,58.1800276 34.3981994,58.3967896 L34.6857799,58.4543439 L39.9441045,59.0386022 C41.0450655,59.1609312 42.0963716,58.5483043 42.5327303,57.530134 C43.0797223,56.2538195 42.4884895,54.7757375 41.1055863,54.1793098 L30.0141969,48.6336151 C27.7957972,47.5244153 25.1235635,47.8945072 23.29012,49.5648685 L16,56 L16,50.6652008 L20.5962565,46.6079953 C23.6519955,43.8240598 28.1057184,43.2072399 31.8030513,45.0559064 L42.7878521,50.5521654 C46.0946858,51.9693798 47.6265249,55.7989775 46.2093104,59.1058112 C45.9782332,59.6449915 45.6805964,60.1402773 45.3289056,60.5843812 L53.9069325,62.3011247 L78.4904579,54.6906526 C82.4264015,53.5383377 86.5512501,55.7949147 87.7035651,59.7308583 C88.3042493,61.7826059 87.9915099,63.9937022 86.8452961,65.7984933 C85.9209863,67.2536606 85.135429,68.2608256 84.402644,68.8712467 C82.8478605,70.1664052 75.8634126,76.979227 60.2854781,86.4915796 C57.7064644,88.0664559 54.5535998,88.3906268 51.7080587,87.3735076 L31.0795829,80 L16,80 L16,76 Z" fill="#2E2E2E" fill-rule="nonzero"></path>
          <path d="M14,40 C15.1045695,40 16,40.8954305 16,42 L16,86 C16,87.1045695 15.1045695,88 14,88 L10,88 C8.8954305,88 8,87.1045695 8,86 C8,84.8954305 8.8954305,84 10,84 L12,84 L12,44 L10,44 C8.8954305,44 8,43.1045695 8,42 C8,40.8954305 8.8954305,40 10,40 L14,40 Z M63.521208,12.7015678 C71.8010858,22.402048 76,30.7998764 76,38 C76,48.0055393 71.0640359,52 62,52 C52.9359641,52 48,48.0055393 48,38 C48,30.7998764 52.1989142,22.402048 60.478792,12.7015678 C61.2772261,11.7661441 62.7227739,11.7661441 63.521208,12.7015678 Z M62,17.1242811 C55.3015071,25.3702965 52,32.357187 52,38 C52,45.5877888 54.9807748,48 62,48 C69.0192252,48 72,45.5877888 72,38 C72,32.357187 68.6984929,25.3702965 62,17.1242811 Z" fill="#2E2E2E"></path>
        </g>
      </g>
    </symbol>

    <symbol id="tips_controls" viewBox="0 0 146 146">
      <g fill="none" fill-rule="evenodd">
        <path d="M120.887417,41.1114301 C131.04748,56.3847641 127.905495,81.7226073 116.159758,98.7616447 C104.443385,115.83011 84.0938954,124.540914 62.9809328,124.98234 C41.8679703,125.423765 19.9915349,117.595814 8.7743559,100.85106 C-2.47218742,84.0768784 -3.05947428,58.4447514 7.89342561,42.7299915 C18.8169612,27.04466 41.2806835,21.3061241 64.2435996,21.0118402 C87.2358801,20.7175563 110.69799,25.8675244 120.887417,41.1114301 Z" fill="#36B37E" opacity="0.100000001"></path>
        <g transform="translate(67, 61)">
          <path d="M25,7.8125 C22.8426377,7.8125 21.09375,9.5613877 21.09375,11.71875 L21.09375,63.28125 C21.09375,65.4386123 22.8426377,67.1875 25,67.1875 L50,67.1875 C52.1573623,67.1875 53.90625,65.4386123 53.90625,63.28125 L53.90625,11.71875 C53.90625,9.5613877 52.1573623,7.8125 50,7.8125 L25,7.8125 Z"></path>
          <path d="M25,7.8125 C22.8426377,7.8125 21.09375,9.5613877 21.09375,11.71875 L21.09375,63.28125 C21.09375,65.4386123 22.8426377,67.1875 25,67.1875 L50,67.1875 C52.1573623,67.1875 53.90625,65.4386123 53.90625,63.28125 L53.90625,11.71875 C53.90625,9.5613877 52.1573623,7.8125 50,7.8125 L25,7.8125 Z M25,3.125 L50,3.125 C54.7461971,3.125 58.59375,6.97255293 58.59375,11.71875 L58.59375,63.28125 C58.59375,68.0274471 54.7461971,71.875 50,71.875 L25,71.875 C20.2538029,71.875 16.40625,68.0274471 16.40625,63.28125 L16.40625,11.71875 C16.40625,6.97255293 20.2538029,3.125 25,3.125 Z M29.125,5.46875 L45.875,5.46875 C46.4272847,5.46875 46.875,5.91646525 46.875,6.46875 L46.875,10.71875 C46.875,11.2710347 46.4272847,11.71875 45.875,11.71875 L29.125,11.71875 C28.5727153,11.71875 28.125,11.2710347 28.125,10.71875 L28.125,6.46875 C28.125,5.91646525 28.5727153,5.46875 29.125,5.46875 Z" fill="#2E2E2E" fill-rule="nonzero"></path>
        </g>
      </g>
    </symbol>

    <!-- START MENU ICONS -->
    <symbol id="menu-drop" viewBox="0 0 24 24">
      <path fill-rule="nonzero" d="M7,14 C7,16.7614237 9.23857625,19 12,19 C14.7614237,19 17,16.7614237 17,14 C17,12.3742163 15.3702913,9.86852817 12,6.69922982 C8.62970872,9.86852817 7,12.3742163 7,14 Z M12,21 C8.13400675,21 5,17.8659932 5,14 C5,11.4226712 7.33333333,8.08933783 12,4 C16.6666667,8.08933783 19,11.4226712 19,14 C19,17.8659932 15.8659932,21 12,21 Z"></path>
      <path fill-rule="evenodd" d="M12,4 C16.6666667,8.08933783 19,11.4226712 19,14 C19,17.8659932 15.8659932,21 12,21 Z"></path>
    </symbol>

    <symbol id="menu-book" viewBox="0 0 24 24">
      <path fill-rule="evenodd" d="M7,2 L19,2 C19.6418278,2 20,2.37309604 20,3 C20,16.3451015 20,21.3444789 20,17.9981321 C20,17.9981321 7.99809313,17.9981321 7.99809313,17.9981321 C6.67652345,17.9981321 6.67652345,19.9891495 7.99809313,19.9891495 C11.5412935,19.9891495 20,19.9891495 20,19.9891495 C20,19.9891495 20,20.3260997 20,21 C20,21.626904 19.6418278,22 19,22 L7,22 C5.2536027,22 4,20.6941639 4,19 L4,5 C4,3.30583615 5.2536027,2 7,2 Z"></path>
    </symbol>

    <symbol id="menu-pen" viewBox="0 0 24 24">
      <g fill-rule="evenodd">
        <path d="M12.9998441,3 L17.7925828,12.5851656 C17.9241309,12.8482619 17.9331722,13.1559315 17.8173006,13.4262985 L15.1298744,19.6969596 C15.051085,19.8808016 14.870316,20 14.6703019,20 L9.32969808,20 C9.12968402,20 8.94891496,19.8808016 8.87012556,19.6969596 L6.18269936,13.4262985 C6.06682778,13.1559315 6.07586907,12.8482619 6.2074172,12.5851656 L10.9998441,3 L11,11 C11,11.0862032 11.0109074,11.1698588 11.0314174,11.249662 C10.4167048,11.5902985 10,12.246486 10,13 C10,14.1045695 10.8954305,15 12,15 C13.1045695,15 14,14.1045695 14,13 C14,12.2464828 13.5832917,11.590293 12.9677509,11.2493065 C12.9890926,11.1698588 13,11.0862032 13,11 L12.9998441,3 Z"></path>
        <path opacity="0.3" d="M10,21 L14,21 C14.5522847,21 15,21.4477153 15,22 L15,23 L15,23 L9,23 L9,22 C9,21.4477153 9.44771525,21 10,21 Z"></path>
      </g>
    </symbol>

    <symbol id="menu-mail" viewBox="0 0 24 24">
      <path fill-rule="evenodd" d="M19,6 C20.1045695,6 21,6.8954305 21,8 L21,17 C21,18.1045695 20.1045695,19 19,19 L5,19 C3.8954305,19 3,18.1045695 3,17 L3,8 C3,6.8954305 3.8954305,6 5,6 L19,6 Z M19.1603533,8.14442513 C18.9639747,7.77972206 18.5091282,7.6432681 18.1444251,7.83964668 L12,11.1481833 L5.85557487,7.83964668 C5.4908718,7.6432681 5.03602525,7.77972206 4.83964668,8.14442513 C4.6432681,8.5091282 4.77972206,8.96397475 5.14442513,9.16035332 L11.6444251,12.6603533 C11.8664074,12.7798822 12.1335926,12.7798822 12.3555749,12.6603533 L18.8555749,9.16035332 C19.2202779,8.96397475 19.3567319,8.5091282 19.1603533,8.14442513 Z"></path>
    </symbol>

    <symbol id="menu-clipboard" viewBox="0 0 24 24">
      <g fill-rule="evenodd">
        <path d="M18,3 C19.1045695,3 20,3.8954305 20,5 L20,21 C20,22.1045695 19.1045695,23 18,23 L6,23 C4.8954305,23 4,22.1045695 4,21 L4,5 C4,3.8954305 4.8954305,3 6,3 L8,3 L8,3.5 C8,4.27969612 8.59488808,4.92044868 9.35553999,4.99313342 L9.5,5 L14.5,5 C15.3284271,5 16,4.32842712 16,3.5 L16,3 L18,3 Z"></path>
        <path d="M12,1 C12.5522847,1 13,1.44771525 13,2 L14.5,2 C14.7761424,2 15,2.22385763 15,2.5 L15,3.5 C15,3.77614237 14.7761424,4 14.5,4 L9.5,4 C9.22385763,4 9,3.77614237 9,3.5 L9,2.5 C9,2.22385763 9.22385763,2 9.5,2 L11,2 C11,1.44771525 11.4477153,1 12,1 Z"></path>
        <rect fill="#fff" x="10" y="9" width="7" height="2" rx="1"></rect>
        <rect fill="#fff" x="7" y="9" width="2" height="2" rx="1"></rect>
        <rect fill="#fff" x="7" y="13" width="2" height="2" rx="1"></rect>
        <rect fill="#fff" x="10" y="13" width="7" height="2" rx="1"></rect>
        <rect fill="#fff" x="7" y="17" width="2" height="2" rx="1"></rect>
        <rect fill="#fff" x="10" y="17" width="7" height="2" rx="1"></rect>
      </g>
    </symbol>

    <symbol id="menu-calendar" viewBox="0 0 24 24">
      <g fill-rule="evenodd">
        <path d="M3.27911932,10.9090909 L20.7336648,10.9090909 L20.7336648,19.7272727 C20.7336648,20.2795575 20.2859495,20.7272727 19.7336648,20.7272727 L4.27911932,20.7272727 C3.72683457,20.7272727 3.27911932,20.2795575 3.27911932,19.7272727 L3.27911932,10.9090909 L3.27911932,10.9090909 Z M17.4609375,3.27272727 L17.4607273,5.13572727 L15.2787273,5.13572727 L15.2791193,6.54545455 L17.4609375,6.54545455 L17.4607273,5.13572727 L19.7198153,5.13654119 C20.2326512,5.13654119 20.6553225,5.52258138 20.7130876,6.01992007 L20.7198153,6.13654119 L20.7198153,9.27618963 L3.27272727,9.27618963 L3.27272727,6.13654119 C3.27272727,5.58425644 3.72044252,5.13654119 4.27272727,5.13654119 L6.55172727,5.13572727 L6.55184659,6.54545455 L8.73366477,6.54545455 L8.73272727,5.13572727 L15.2787273,5.13572727 L15.2791193,3.27272727 L17.4609375,3.27272727 Z M8.73366477,3.27272727 L8.73272727,5.13572727 L6.55172727,5.13572727 L6.55184659,3.27272727 L8.73366477,3.27272727 Z"></path>
      </g>
    </symbol>
    <!-- END MENU ICONS -->
  </defs>
</svg>
