<svg aria-hidden="true" version="1.1" xmlns="http://www.w3.org/2000/svg" xmlns:xlink="http://www.w3.org/1999/xlink">
  <defs>
    <symbol id="chat">
      <g fill-rule="evenodd">
        <path d="M22,15.01 L22.0249378,15 L22.0249378,19.5857864 C22.0249378,20.1380712 21.5772226,20.5857864 21.0249378,20.5857864 C20.7597213,20.5857864 20.5053674,20.4804296 20.317831,20.2928932 L18.025,18 L6,18 C4.34314575,18 3,16.6568542 3,15 L3,6 C3,4.34314575 4.34314575,3 6,3 L19,3 C20.6568542,3 22,4.34314575 22,6 L22,15.01 Z" fill="currentColor"></path>
        <path d="M7.5,12 C6.67157288,12 6,11.3284271 6,10.5 C6,9.67157288 6.67157288,9 7.5,9 C8.32842712,9 9,9.67157288 9,10.5 C9,11.3284271 8.32842712,12 7.5,12 Z M12.5,12 C11.6715729,12 11,11.3284271 11,10.5 C11,9.67157288 11.6715729,9 12.5,9 C13.3284271,9 14,9.67157288 14,10.5 C14,11.3284271 13.3284271,12 12.5,12 Z M17.5,12 C16.6715729,12 16,11.3284271 16,10.5 C16,9.67157288 16.6715729,9 17.5,9 C18.3284271,9 19,9.67157288 19,10.5 C19,11.3284271 18.3284271,12 17.5,12 Z" fill="#fff"></path>
      </g>
    </symbol>

    <symbol id="mail">
      <g fill-rule="evenodd">
        <path d="M4,16 L5,16 C5.55228475,16 6,16.4477153 6,17 C6,17.5522847 5.55228475,18 5,18 L4,18 C3.44771525,18 3,17.5522847 3,17 C3,16.4477153 3.44771525,16 4,16 Z M1,11 L5,11 C5.55228475,11 6,11.4477153 6,12 C6,12.5522847 5.55228475,13 5,13 L1,13 C0.44771525,13 6.76353751e-17,12.5522847 0,12 C-6.76353751e-17,11.4477153 0.44771525,11 1,11 Z M3,6 L5,6 C5.55228475,6 6,6.44771525 6,7 C6,7.55228475 5.55228475,8 5,8 L3,8 C2.44771525,8 2,7.55228475 2,7 C2,6.44771525 2.44771525,6 3,6 Z" fill="currentColor" opacity="0.3"></path>
        <path d="M22,6 C23.1045695,6 24,6.8954305 24,8 L24,16 C24,17.1045695 23.1045695,18 22,18 L10,18 C8.8954305,18 8,17.1045695 8,16 L8,8 C8,6.8954305 8.8954305,6 10,6 L22,6 Z M21.9256908,8.31564728 C21.7631738,8.02389331 21.3867567,7.91473331 21.0849395,8.0718316 L16,10.7185839 L10.9150605,8.0718316 C10.6132433,7.91473331 10.2368262,8.02389331 10.0743092,8.31564728 C9.91179228,8.60740125 10.0247174,8.9712679 10.3265346,9.12836619 L15.705737,11.9282847 C15.8894428,12.0239051 16.1105572,12.0239051 16.294263,11.9282847 L21.6734654,9.12836619 C21.9752826,8.9712679 22.0882077,8.60740125 21.9256908,8.31564728 Z" fill="currentColor"></path>
      </g>
    </symbol>

    <symbol id="dollar">
      <g fill-rule="evenodd">
        <rect fill="currentColor" opacity="0.3" x="11.5" y="3" width="2" height="4" rx="1"></rect>
        <rect fill="currentColor" opacity="0.3" x="11.5" y="17" width="2" height="5" rx="1"></rect>
        <path d="M15.493,9.044 C15.2143319,8.68933156 14.8501689,8.40750104 14.4005,8.1985 C13.9508311,7.98949895 13.5170021,7.885 13.099,7.885 C12.8836656,7.885 12.6651678,7.90399981 12.4435,7.942 C12.2218322,7.98000019 12.0223342,8.05283279 11.845,8.1605 C11.6676658,8.2681672 11.5188339,8.40749914 11.3985,8.5785 C11.2781661,8.74950085 11.218,8.96799867 11.218,9.234 C11.218,9.46200114 11.2654995,9.65199924 11.3605,9.804 C11.4555005,9.95600076 11.5948324,10.0889994 11.7785,10.203 C11.9621676,10.3170006 12.1806654,10.4214995 12.434,10.5165 C12.6873346,10.6115005 12.9723317,10.7096662 13.289,10.811 C13.7450023,10.9630008 14.2199975,11.1308324 14.714,11.3145 C15.2080025,11.4981676 15.6576646,11.7419985 16.063,12.046 C16.4683354,12.3500015 16.8039987,12.7268311 17.07,13.1765 C17.3360013,13.6261689 17.469,14.1866633 17.469,14.858 C17.469,15.6306705 17.3265014,16.2988305 17.0415,16.8625 C16.7564986,17.4261695 16.3733357,17.8916648 15.892,18.259 C15.4106643,18.6263352 14.8596698,18.8986658 14.239,19.076 C13.6183302,19.2533342 12.97867,19.342 12.32,19.342 C11.3573285,19.342 10.4263378,19.1741683 9.527,18.8385 C8.62766217,18.5028317 7.88033631,18.0246698 7.285,17.404 L9.413,15.238 C9.74233498,15.6433354 10.176164,15.9821653 10.7145,16.2545 C11.252836,16.5268347 11.7879973,16.663 12.32,16.663 C12.5606679,16.663 12.7949989,16.6376669 13.023,16.587 C13.2510011,16.5363331 13.4504991,16.4540006 13.6215,16.34 C13.7925009,16.2259994 13.9286662,16.0740009 14.03,15.884 C14.1313338,15.693999 14.182,15.4660013 14.182,15.2 C14.182,14.9466654 14.1186673,14.7313342 13.992,14.554 C13.8653327,14.3766658 13.6848345,14.2151674 13.4505,14.0695 C13.2161655,13.9238326 12.9248351,13.7908339 12.5765,13.6705 C12.2281649,13.5501661 11.8323355,13.420334 11.389,13.281 C10.9583312,13.141666 10.5371687,12.9770009 10.1255,12.787 C9.71383127,12.596999 9.34650161,12.3531682 9.0235,12.0555 C8.70049838,11.7578318 8.44083431,11.3968355 8.2445,10.9725 C8.04816568,10.5481645 7.95,10.032003 7.95,9.424 C7.95,8.67666293 8.10199848,8.03700266 8.406,7.505 C8.71000152,6.97299734 9.10899753,6.53600171 9.603,6.194 C10.0970025,5.85199829 10.6543302,5.60183412 11.275,5.4435 C11.8956698,5.28516587 12.5226635,5.206 13.156,5.206 C13.9160038,5.206 14.6918294,5.34533194 15.4835,5.624 C16.2751706,5.90266806 16.9686637,6.31433061 17.564,6.859 L15.493,9.044 Z" fill="currentColor"></path>
      </g>
    </symbol>

    <symbol id="clock">
      <g fill-rule="evenodd">
        <path d="M10.9630156,7.5 L11.0475062,7.5 C11.3043819,7.5 11.5194647,7.69464724 11.5450248,7.95024814 L12,12.5 L12,12.5 L15.2480695,14.3560397 C15.403857,14.4450611 15.5,14.6107328 15.5,14.7901613 L15.5,15 C15.5,15.2109164 15.3290185,15.3818979 15.1181021,15.3818979 C15.0841582,15.3818979 15.0503659,15.3773725 15.0176181,15.3684413 L10.3986612,14.1087258 C10.1672824,14.0456225 10.0132986,13.8271186 10.0316926,13.5879956 L10.4644883,7.96165175 C10.4845267,7.70115317 10.7017474,7.5 10.9630156,7.5 Z" fill="currentColor" opacity="0.3"></path>
        <path d="M22,12.5 C22,18.2039245 17.451858,22.8455734 11.7842951,22.9962258 L11.5,23 C5.70101013,23 1,18.2989899 1,12.5 C1,11.5151324 1.13559454,10.5619345 1.38913364,9.65805651 L3.31481075,10.1982117 C3.10672013,10.940064 3,11.7119264 3,12.5 C3,17.1944204 6.80557963,21 11.5,21 C16.1944204,21 20,17.1944204 20,12.5 C20,7.80557963 16.1944204,4 11.5,4 C10.5545108,4 9.63356281,4.15404793 8.7645726,4.44906446 C8.75955147,4.4507691 8.75453207,4.45247844 8.74951442,4.4541925 L9.93948308,5.87355717 C10.0088058,5.95617272 10.0495583,6.05898805 10.05566,6.16666224 C10.0712834,6.4423623 9.86044965,6.67852665 9.5847496,6.69415008 L4.71777931,6.96995273 C4.66931162,6.97269931 4.62070229,6.96837279 4.57348157,6.95710938 C4.30487471,6.89303938 4.13906482,6.62335149 4.20313482,6.35474463 L5.33163823,1.62361064 C5.35654118,1.51920756 5.41437908,1.4255891 5.49660017,1.35659741 C5.7081375,1.17909652 6.0235153,1.2066885 6.2010162,1.41822583 L7.39103417,2.83443099 L7.50990952,2.78469604 C8.74007887,2.2789228 10.0874665,2 11.5,2 C17.2989899,2 22,6.70101013 22,12.5 Z" fill="currentColor"></path>
      </g>
    </symbol>

    <symbol id="home-heart">
      <g fill-rule="evenodd">
        <path d="M3.95708309,8.41510581 L11.4785502,3.81866309 C11.7986625,3.62303933 12.2013374,3.62303952 12.5214495,3.81866357 L20.0429,8.41510557 C20.6374094,8.77841684 21,9.42493654 21,10.1216692 L21,19.0000673 C21,20.1046368 20.1045695,21.0000673 19,21.0000673 L4.99998155,21.0000673 C3.89541205,21.0000673 2.99998155,20.1046368 2.99998155,19.0000673 L2.99998155,10.1216704 C2.99998155,9.42493709 3.36257285,8.77841688 3.95708309,8.41510581 Z" fill="currentColor"></path>
        <path d="M13.8,12 C13.1562,12 12.4033,12.7298529 12,13.2 C11.5967,12.7298529 10.8438,12 10.2,12 C9.0604,12 8.4,12.8888719 8.4,14.0201635 C8.4,15.2733878 9.6,16.6 12,18 C14.4,16.6 15.6,15.3 15.6,14.1 C15.6,12.9687084 14.9396,12 13.8,12 Z" fill="#fff"></path>
      </g>
    </symbol>
  </defs>
</svg>
